<svg version="1.1" viewBox="0.0 0.0 960.0 540.0" fill="none" stroke="none" stroke-linecap="square" stroke-miterlimit="10" xmlns:xlink="http://www.w3.org/1999/xlink" xmlns="http://www.w3.org/2000/svg"><clipPath id="gc6f80d1ff_0_10.0"><path d="m0 0l960.0 0l0 540.0l-960.0 0l0 -540.0z" clip-rule="nonzero"/></clipPath><g clip-path="url(#gc6f80d1ff_0_10.0)"><path fill="#ffffff" d="m0 0l960.0 0l0 540.0l-960.0 0z" fill-rule="evenodd"/><path fill="#000000" fill-opacity="0.0" d="m-0.7217848 304.53543l960.72437 0" fill-rule="evenodd"/><path stroke="#424242" stroke-width="2.0" stroke-linejoin="round" stroke-linecap="butt" d="m-0.7217848 304.53543l960.72437 0" fill-rule="evenodd"/><path fill="#000000" fill-opacity="0.0" d="m32.72441 39.107613l894.55115 0l0 77.00787l-894.55115 0z" fill-rule="evenodd"/><path fill="#424242" d="m52.365036 97.874855q-3.4375 0 -5.34375 -1.4375q-1.890625 -1.4375 -2.640625 -3.875q-0.734375 -2.453125 -0.734375 -5.453125l0 -11.4375q0 -3.28125 0.734375 -5.71875q0.75 -2.4375 2.640625 -3.78125q1.90625 -1.34375 5.34375 -1.34375q3.046875 0 4.8125 1.125q1.78125 1.125 2.5625 3.203125q0.78125 2.078125 0.78125 5.0l0 2.5625l-4.28125 0l0 -2.28125q0 -1.796875 -0.1875 -3.171875q-0.171875 -1.390625 -0.96875 -2.140625q-0.796875 -0.765625 -2.671875 -0.765625q-1.921875 0 -2.8125 0.828125q-0.875 0.8125 -1.140625 2.3125q-0.25 1.5 -0.25 3.5l0 12.828125q0 2.453125 0.390625 3.875q0.40625 1.40625 1.328125 2.015625q0.921875 0.59375 2.484375 0.59375q1.828125 0 2.625 -0.8125q0.8125 -0.828125 1.0 -2.265625q0.203125 -1.4375 0.203125 -3.359375l0 -2.40625l4.28125 0l0 2.40625q0 2.953125 -0.71875 5.21875q-0.71875 2.265625 -2.484375 3.53125q-1.75 1.25 -4.953125 1.25zm18.474976 -0.046875q-2.5625 0 -4.046875 -1.03125q-1.46875 -1.046875 -2.09375 -2.953125q-0.609375 -1.921875 -0.609375 -4.53125l0 -6.71875q0 -2.59375 0.609375 -4.515625q0.625 -1.921875 2.09375 -2.953125q1.484375 -1.046875 4.046875 -1.046875q2.5625 0 4.015625 1.046875q1.46875 1.03125 2.078125 2.953125q0.625 1.921875 0.625 4.515625l0 6.71875q0 2.609375 -0.625 4.53125q-0.609375 1.90625 -2.078125 2.953125q-1.453125 1.03125 -4.015625 1.03125zm0 -3.15625q1.25 0 1.75 -0.71875q0.5 -0.71875 0.59375 -1.890625q0.09375 -1.1875 0.09375 -2.46875l0 -7.234375q0 -1.328125 -0.09375 -2.484375q-0.09375 -1.15625 -0.59375 -1.890625q-0.5 -0.75 -1.75 -0.75q-1.234375 0 -1.765625 0.75q-0.515625 0.734375 -0.609375 1.890625q-0.09375 1.15625 -0.09375 2.484375l0 7.234375q0 1.28125 0.09375 2.46875q0.09375 1.171875 0.609375 1.890625q0.53125 0.71875 1.765625 0.71875zm10.64061 2.84375l0 -23.125l3.96875 0l0 2.203125q1.15625 -1.3125 2.546875 -1.953125q1.40625 -0.640625 2.890625 -0.640625q1.28125 0 2.296875 0.640625q1.015625 0.640625 1.453125 2.28125q1.25 -1.53125 2.703125 -2.21875q1.46875 -0.703125 3.0625 -0.703125q1.125 0 2.046875 0.546875q0.921875 0.53125 1.46875 1.71875q0.5625 1.171875 0.5625 3.09375l0 18.15625l-3.921875 0l0 -17.875q0 -1.6875 -0.546875 -2.265625q-0.53125 -0.578125 -1.453125 -0.578125q-0.875 0 -1.84375 0.5q-0.953125 0.5 -1.75 1.375q0 0.15625 0 0.328125q0 0.15625 0 0.359375l0 18.15625l-3.921875 0l0 -17.875q0 -1.6875 -0.546875 -2.265625q-0.53125 -0.578125 -1.453125 -0.578125q-0.875 0 -1.828125 0.5q-0.9375 0.5 -1.765625 1.375l0 18.84375l-3.96875 0zm27.199982 7.59375l0 -30.71875l4.28125 0l0 1.84375q0.765625 -0.875 1.84375 -1.515625q1.078125 -0.640625 2.5625 -0.640625q1.796875 0 2.859375 0.9375q1.0625 0.9375 1.578125 2.359375q0.515625 1.421875 0.671875 2.890625q0.171875 1.453125 0.171875 2.484375l0 5.609375q0 2.4375 -0.484375 4.625q-0.484375 2.171875 -1.75 3.515625q-1.25 1.328125 -3.53125 1.328125q-1.234375 0 -2.203125 -0.609375q-0.953125 -0.625 -1.71875 -1.421875l0 9.3125l-4.28125 0zm7.359375 -10.640625q1.125 0 1.59375 -0.8125q0.484375 -0.828125 0.609375 -2.21875q0.125 -1.40625 0.125 -3.078125l0 -5.609375q0 -1.4375 -0.171875 -2.65625q-0.15625 -1.21875 -0.671875 -1.9375q-0.515625 -0.71875 -1.640625 -0.71875q-0.84375 0 -1.609375 0.359375q-0.75 0.359375 -1.3125 0.84375l0 14.796875q0.609375 0.4375 1.359375 0.734375q0.765625 0.296875 1.71875 0.296875zm16.886856 3.359375q-2.71875 0 -4.203125 -1.046875q-1.484375 -1.0625 -2.0625 -3.125q-0.578125 -2.0625 -0.578125 -5.0625l0 -5.28125q0 -3.078125 0.59375 -5.109375q0.609375 -2.046875 2.109375 -3.078125q1.5 -1.046875 4.140625 -1.046875q2.921875 0 4.296875 1.203125q1.375 1.1875 1.8125 3.453125q0.453125 2.265625 0.453125 5.421875l0 1.875l-9.125 0l0 4.640625q0 1.40625 0.25 2.28125q0.265625 0.875 0.84375 1.296875q0.59375 0.421875 1.5 0.421875q0.96875 0 1.46875 -0.453125q0.5 -0.46875 0.671875 -1.328125q0.1875 -0.859375 0.1875 -2.015625l0 -1.40625l4.15625 0l0 0.890625q0 3.46875 -1.484375 5.46875q-1.46875 2.0 -5.03125 2.0zm-2.5625 -14.109375l4.921875 0l0 -2.078125q0 -1.4375 -0.171875 -2.421875q-0.15625 -0.984375 -0.65625 -1.484375q-0.5 -0.5 -1.578125 -0.5q-1.03125 0 -1.578125 0.484375q-0.53125 0.484375 -0.734375 1.625q-0.203125 1.125 -0.203125 3.125l0 1.25zm19.152481 14.109375q-1.796875 0 -2.90625 -0.671875q-1.09375 -0.6875 -1.59375 -1.921875q-0.5 -1.234375 -0.5 -2.921875l0 -15.078125l-2.4375 0l0 -2.84375l2.4375 0l0 -6.75l4.28125 0l0 6.75l3.71875 0l0 2.84375l-3.71875 0l0 14.796875q0 1.359375 0.4375 1.953125q0.453125 0.578125 1.6875 0.578125q0.328125 0 0.734375 -0.046875q0.421875 -0.046875 0.828125 -0.078125l0 3.15625q-0.796875 0.125 -1.484375 0.171875q-0.671875 0.0625 -1.484375 0.0625zm12.569992 0q-2.71875 0 -4.203125 -1.046875q-1.484375 -1.0625 -2.0625 -3.125q-0.578125 -2.0625 -0.578125 -5.0625l0 -5.28125q0 -3.078125 0.59375 -5.109375q0.609375 -2.046875 2.109375 -3.078125q1.5 -1.046875 4.140625 -1.046875q2.921875 0 4.296875 1.203125q1.375 1.1875 1.8125 3.453125q0.453125 2.265625 0.453125 5.421875l0 1.875l-9.125 0l0 4.640625q0 1.40625 0.25 2.28125q0.265625 0.875 0.84375 1.296875q0.59375 0.421875 1.5 0.421875q0.96875 0 1.46875 -0.453125q0.5 -0.46875 0.671875 -1.328125q0.1875 -0.859375 0.1875 -2.015625l0 -1.40625l4.15625 0l0 0.890625q0 3.46875 -1.484375 5.46875q-1.46875 2.0 -5.03125 2.0zm-2.5625 -14.109375l4.921875 0l0 -2.078125q0 -1.4375 -0.171875 -2.421875q-0.15625 -0.984375 -0.65625 -1.484375q-0.5 -0.5 -1.578125 -0.5q-1.03125 0 -1.578125 0.484375q-0.53125 0.484375 -0.734375 1.625q-0.203125 1.125 -0.203125 3.125l0 1.25zm-3.203125 -11.609375l3.4375 -7.0l4.359375 0l3.484375 7.0l-3.234375 0l-2.453125 -4.828125l-2.390625 4.828125l-3.203125 0zm16.199356 25.40625l0 -23.125l4.28125 0l0 2.28125q1.15625 -1.078125 2.5625 -1.828125q1.40625 -0.765625 3.078125 -0.765625q1.40625 0 2.140625 0.71875q0.734375 0.71875 1.03125 1.796875q0.3125 1.078125 0.3125 2.203125l0 18.71875l-4.28125 0l0 -17.484375q0 -1.234375 -0.359375 -1.90625q-0.359375 -0.6875 -1.484375 -0.6875q-0.71875 0 -1.5 0.421875q-0.78125 0.421875 -1.5 1.015625l0 18.640625l-4.28125 0zm23.888107 0.3125q-2.84375 0 -4.3125 -1.125q-1.453125 -1.140625 -1.953125 -3.21875q-0.5 -2.09375 -0.5 -4.84375l0 -5.328125q0 -2.921875 0.515625 -4.96875q0.53125 -2.0625 1.984375 -3.15625q1.46875 -1.109375 4.265625 -1.109375q2.515625 0 3.890625 0.828125q1.390625 0.8125 1.90625 2.4375q0.515625 1.609375 0.515625 4.015625l0 1.359375l-3.875 0l0 -1.40625q0 -1.515625 -0.203125 -2.390625q-0.203125 -0.890625 -0.71875 -1.28125q-0.515625 -0.40625 -1.484375 -0.40625q-1.03125 0 -1.59375 0.484375q-0.5625 0.484375 -0.75 1.625q-0.171875 1.125 -0.171875 3.09375l0 7.28125q0 2.953125 0.5625 3.953125q0.5625 1.0 2.0 1.0q1.078125 0 1.578125 -0.5q0.5 -0.5 0.640625 -1.421875q0.140625 -0.921875 0.140625 -2.078125l0 -1.875l3.875 0l0 1.59375q0 2.328125 -0.546875 4.015625q-0.53125 1.671875 -1.921875 2.546875q-1.375 0.875 -3.84375 0.875zm10.393112 -0.3125l0 -23.125l4.28125 0l0 23.125l-4.28125 0zm0 -26.5625l0 -4.484375l4.28125 0l0 4.484375l-4.28125 0zm12.363113 26.875q-1.359375 0 -2.40625 -0.765625q-1.03125 -0.78125 -1.640625 -2.0q-0.59375 -1.234375 -0.59375 -2.59375q0 -2.15625 0.71875 -3.625q0.71875 -1.484375 1.96875 -2.5q1.265625 -1.03125 2.921875 -1.78125q1.671875 -0.765625 3.515625 -1.484375l0 -1.640625q0 -1.40625 -0.171875 -2.3125q-0.15625 -0.921875 -0.65625 -1.375q-0.5 -0.46875 -1.5 -0.46875q-0.875 0 -1.421875 0.40625q-0.53125 0.390625 -0.78125 1.140625q-0.234375 0.734375 -0.234375 1.734375l0 1.15625l-4.234375 -0.15625q0.078125 -3.84375 1.75 -5.65625q1.6875 -1.828125 5.203125 -1.828125q3.4375 0 4.875 1.875q1.453125 1.875 1.453125 5.4375l0 10.5625q0 1.078125 0.046875 2.078125q0.0625 1.0 0.15625 1.859375q0.109375 0.859375 0.1875 1.625l-3.921875 0q-0.109375 -0.640625 -0.296875 -1.609375q-0.171875 -0.984375 -0.265625 -1.796875q-0.390625 1.359375 -1.53125 2.546875q-1.140625 1.171875 -3.140625 1.171875zm1.671875 -3.671875q0.640625 0 1.203125 -0.359375q0.5625 -0.359375 1.0 -0.8125q0.4375 -0.46875 0.609375 -0.75l0 -6.5625q-1.0 0.5625 -1.890625 1.125q-0.875 0.5625 -1.53125 1.1875q-0.65625 0.609375 -1.046875 1.390625q-0.375 0.78125 -0.375 1.78125q0 1.40625 0.515625 2.203125q0.515625 0.796875 1.515625 0.796875zm16.56311 3.671875q-2.828125 0 -4.5625 -1.765625q-1.71875 -1.78125 -1.953125 -4.703125l3.5625 -1.078125q0.3125 2.1875 1.078125 3.296875q0.765625 1.09375 2.234375 1.09375q1.171875 0 1.765625 -0.65625q0.59375 -0.65625 0.59375 -1.78125q0 -1.0 -0.4375 -1.796875q-0.4375 -0.796875 -1.4375 -1.640625l-3.953125 -3.40625q-1.203125 -1.03125 -2.03125 -2.3125q-0.8125 -1.28125 -0.8125 -3.328125q0 -1.828125 0.734375 -3.09375q0.75 -1.265625 2.078125 -1.921875q1.34375 -0.65625 3.140625 -0.65625q2.890625 0 4.40625 1.78125q1.515625 1.78125 1.765625 4.296875l-3.046875 1.078125q-0.15625 -1.203125 -0.484375 -2.09375q-0.3125 -0.90625 -0.921875 -1.40625q-0.59375 -0.5 -1.546875 -0.5q-1.046875 0 -1.671875 0.703125q-0.609375 0.703125 -0.609375 1.65625q0 0.609375 0.25 1.1875q0.265625 0.578125 0.90625 1.140625l4.078125 3.75q0.84375 0.765625 1.578125 1.65625q0.734375 0.875 1.21875 2.0q0.484375 1.109375 0.484375 2.59375q0 1.953125 -0.8125 3.28125q-0.796875 1.3125 -2.234375 1.96875q-1.4375 0.65625 -3.359375 0.65625zm25.166855 0q-2.71875 0 -4.203125 -1.046875q-1.484375 -1.0625 -2.0625 -3.125q-0.578125 -2.0625 -0.578125 -5.0625l0 -5.28125q0 -3.078125 0.59375 -5.109375q0.609375 -2.046875 2.109375 -3.078125q1.5 -1.046875 4.140625 -1.046875q2.921875 0 4.296875 1.203125q1.375 1.1875 1.8125 3.453125q0.453125 2.265625 0.453125 5.421875l0 1.875l-9.125 0l0 4.640625q0 1.40625 0.25 2.28125q0.265625 0.875 0.84375 1.296875q0.59375 0.421875 1.5 0.421875q0.96875 0 1.46875 -0.453125q0.5 -0.46875 0.671875 -1.328125q0.1875 -0.859375 0.1875 -2.015625l0 -1.40625l4.15625 0l0 0.890625q0 3.46875 -1.484375 5.46875q-1.46875 2.0 -5.03125 2.0zm-2.5625 -14.109375l4.921875 0l0 -2.078125q0 -1.4375 -0.171875 -2.421875q-0.15625 -0.984375 -0.65625 -1.484375q-0.5 -0.5 -1.578125 -0.5q-1.03125 0 -1.578125 0.484375q-0.53125 0.484375 -0.734375 1.625q-0.203125 1.125 -0.203125 3.125l0 1.25zm28.484344 14.109375q-2.84375 0 -4.3125 -1.125q-1.453125 -1.140625 -1.953125 -3.21875q-0.5 -2.09375 -0.5 -4.84375l0 -5.328125q0 -2.921875 0.515625 -4.96875q0.53125 -2.0625 1.984375 -3.15625q1.46875 -1.109375 4.265625 -1.109375q2.515625 0 3.890625 0.828125q1.390625 0.8125 1.90625 2.4375q0.515625 1.609375 0.515625 4.015625l0 1.359375l-3.875 0l0 -1.40625q0 -1.515625 -0.203125 -2.390625q-0.203125 -0.890625 -0.71875 -1.28125q-0.515625 -0.40625 -1.484375 -0.40625q-1.03125 0 -1.59375 0.484375q-0.5625 0.484375 -0.75 1.625q-0.171875 1.125 -0.171875 3.09375l0 7.28125q0 2.953125 0.5625 3.953125q0.5625 1.0 2.0 1.0q1.078125 0 1.578125 -0.5q0.5 -0.5 0.640625 -1.421875q0.140625 -0.921875 0.140625 -2.078125l0 -1.875l3.875 0l0 1.59375q0 2.328125 -0.546875 4.015625q-0.53125 1.671875 -1.921875 2.546875q-1.375 0.875 -3.84375 0.875zm16.27124 0q-2.5625 0 -4.046875 -1.03125q-1.46875 -1.046875 -2.09375 -2.953125q-0.609375 -1.921875 -0.609375 -4.53125l0 -6.71875q0 -2.59375 0.609375 -4.515625q0.625 -1.921875 2.09375 -2.953125q1.484375 -1.046875 4.046875 -1.046875q2.5625 0 4.015625 1.046875q1.46875 1.03125 2.078125 2.953125q0.625 1.921875 0.625 4.515625l0 6.71875q0 2.609375 -0.625 4.53125q-0.609375 1.90625 -2.078125 2.953125q-1.453125 1.03125 -4.015625 1.03125zm0 -3.15625q1.25 0 1.75 -0.71875q0.5 -0.71875 0.59375 -1.890625q0.09375 -1.1875 0.09375 -2.46875l0 -7.234375q0 -1.328125 -0.09375 -2.484375q-0.09375 -1.15625 -0.59375 -1.890625q-0.5 -0.75 -1.75 -0.75q-1.234375 0 -1.765625 0.75q-0.515625 0.734375 -0.609375 1.890625q-0.09375 1.15625 -0.09375 2.484375l0 7.234375q0 1.28125 0.09375 2.46875q0.09375 1.171875 0.609375 1.890625q0.53125 0.71875 1.765625 0.71875zm10.6405945 2.84375l0 -23.125l4.28125 0l0 2.28125q1.15625 -1.078125 2.5625 -1.828125q1.40625 -0.765625 3.078125 -0.765625q1.40625 0 2.140625 0.71875q0.734375 0.71875 1.03125 1.796875q0.3125 1.078125 0.3125 2.203125l0 18.71875l-4.28125 0l0 -17.484375q0 -1.234375 -0.359375 -1.90625q-0.359375 -0.6875 -1.484375 -0.6875q-0.71875 0 -1.5 0.421875q-0.78125 0.421875 -1.5 1.015625l0 18.640625l-4.28125 0zm17.684967 0l0 -32.40625l4.28125 0l0 11.6875q1.15625 -1.125 2.59375 -1.921875q1.4375 -0.796875 3.203125 -0.796875q1.359375 0 2.09375 0.71875q0.75 0.71875 1.046875 1.796875q0.296875 1.078125 0.296875 2.203125l0 18.71875l-4.28125 0l0 -17.484375q0 -1.234375 -0.359375 -1.90625q-0.359375 -0.6875 -1.46875 -0.6875q-0.765625 0 -1.59375 0.4375q-0.8125 0.4375 -1.53125 1.078125l0 18.5625l-4.28125 0zm24.081238 0.3125q-2.71875 0 -4.203125 -1.046875q-1.484375 -1.0625 -2.0625 -3.125q-0.578125 -2.0625 -0.578125 -5.0625l0 -5.28125q0 -3.078125 0.59375 -5.109375q0.609375 -2.046875 2.109375 -3.078125q1.5 -1.046875 4.140625 -1.046875q2.921875 0 4.296875 1.203125q1.375 1.1875 1.8125 3.453125q0.453125 2.265625 0.453125 5.421875l0 1.875l-9.125 0l0 4.640625q0 1.40625 0.25 2.28125q0.265625 0.875 0.84375 1.296875q0.59375 0.421875 1.5 0.421875q0.96875 0 1.46875 -0.453125q0.5 -0.46875 0.671875 -1.328125q0.1875 -0.859375 0.1875 -2.015625l0 -1.40625l4.15625 0l0 0.890625q0 3.46875 -1.484375 5.46875q-1.46875 2.0 -5.03125 2.0zm-2.5625 -14.109375l4.921875 0l0 -2.078125q0 -1.4375 -0.171875 -2.421875q-0.15625 -0.984375 -0.65625 -1.484375q-0.5 -0.5 -1.578125 -0.5q-1.03125 0 -1.578125 0.484375q-0.53125 0.484375 -0.734375 1.625q-0.203125 1.125 -0.203125 3.125l0 1.25zm19.32434 14.109375q-2.84375 0 -4.3125 -1.125q-1.453125 -1.140625 -1.953125 -3.21875q-0.5 -2.09375 -0.5 -4.84375l0 -5.328125q0 -2.921875 0.515625 -4.96875q0.53125 -2.0625 1.984375 -3.15625q1.46875 -1.109375 4.265625 -1.109375q2.515625 0 3.890625 0.828125q1.390625 0.8125 1.90625 2.4375q0.515625 1.609375 0.515625 4.015625l0 1.359375l-3.875 0l0 -1.40625q0 -1.515625 -0.203125 -2.390625q-0.203125 -0.890625 -0.71875 -1.28125q-0.515625 -0.40625 -1.484375 -0.40625q-1.03125 0 -1.59375 0.484375q-0.5625 0.484375 -0.75 1.625q-0.171875 1.125 -0.171875 3.09375l0 7.28125q0 2.953125 0.5625 3.953125q0.5625 1.0 2.0 1.0q1.078125 0 1.578125 -0.5q0.5 -0.5 0.640625 -1.421875q0.140625 -0.921875 0.140625 -2.078125l0 -1.875l3.875 0l0 1.59375q0 2.328125 -0.546875 4.015625q-0.53125 1.671875 -1.921875 2.546875q-1.375 0.875 -3.84375 0.875zm10.393127 -0.3125l0 -23.125l4.28125 0l0 23.125l-4.28125 0zm0 -26.5625l0 -4.484375l4.28125 0l0 4.484375l-4.28125 0zm8.878723 26.5625l0 -23.125l3.96875 0l0 2.203125q1.15625 -1.3125 2.546875 -1.953125q1.40625 -0.640625 2.890625 -0.640625q1.28125 0 2.296875 0.640625q1.015625 0.640625 1.453125 2.28125q1.25 -1.53125 2.703125 -2.21875q1.46875 -0.703125 3.0625 -0.703125q1.125 0 2.046875 0.546875q0.921875 0.53125 1.46875 1.71875q0.5625 1.171875 0.5625 3.09375l0 18.15625l-3.921875 0l0 -17.875q0 -1.6875 -0.546875 -2.265625q-0.53125 -0.578125 -1.453125 -0.578125q-0.875 0 -1.84375 0.5q-0.953125 0.5 -1.75 1.375q0 0.15625 0 0.328125q0 0.15625 0 0.359375l0 18.15625l-3.921875 0l0 -17.875q0 -1.6875 -0.546875 -2.265625q-0.53125 -0.578125 -1.453125 -0.578125q-0.875 0 -1.828125 0.5q-0.9375 0.5 -1.765625 1.375l0 18.84375l-3.96875 0zm33.60623 0.3125q-2.71875 0 -4.203125 -1.046875q-1.484375 -1.0625 -2.0625 -3.125q-0.578125 -2.0625 -0.578125 -5.0625l0 -5.28125q0 -3.078125 0.59375 -5.109375q0.609375 -2.046875 2.109375 -3.078125q1.5 -1.046875 4.140625 -1.046875q2.921875 0 4.296875 1.203125q1.375 1.1875 1.8125 3.453125q0.453125 2.265625 0.453125 5.421875l0 1.875l-9.125 0l0 4.640625q0 1.40625 0.25 2.28125q0.265625 0.875 0.84375 1.296875q0.59375 0.421875 1.5 0.421875q0.96875 0 1.46875 -0.453125q0.5 -0.46875 0.671875 -1.328125q0.1875 -0.859375 0.1875 -2.015625l0 -1.40625l4.15625 0l0 0.890625q0 3.46875 -1.484375 5.46875q-1.46875 2.0 -5.03125 2.0zm-2.5625 -14.109375l4.921875 0l0 -2.078125q0 -1.4375 -0.171875 -2.421875q-0.15625 -0.984375 -0.65625 -1.484375q-0.5 -0.5 -1.578125 -0.5q-1.03125 0 -1.578125 0.484375q-0.53125 0.484375 -0.734375 1.625q-0.203125 1.125 -0.203125 3.125l0 1.25zm12.996246 13.796875l0 -23.125l4.28125 0l0 2.28125q1.15625 -1.078125 2.5625 -1.828125q1.40625 -0.765625 3.078125 -0.765625q1.40625 0 2.140625 0.71875q0.734375 0.71875 1.03125 1.796875q0.3125 1.078125 0.3125 2.203125l0 18.71875l-4.28125 0l0 -17.484375q0 -1.234375 -0.359375 -1.90625q-0.359375 -0.6875 -1.484375 -0.6875q-0.71875 0 -1.5 0.421875q-0.78125 0.421875 -1.5 1.015625l0 18.640625l-4.28125 0zm23.716248 0.3125q-1.796875 0 -2.90625 -0.671875q-1.09375 -0.6875 -1.59375 -1.921875q-0.5 -1.234375 -0.5 -2.921875l0 -15.078125l-2.4375 0l0 -2.84375l2.4375 0l0 -6.75l4.28125 0l0 6.75l3.71875 0l0 2.84375l-3.71875 0l0 14.796875q0 1.359375 0.4375 1.953125q0.453125 0.578125 1.6875 0.578125q0.328125 0 0.734375 -0.046875q0.421875 -0.046875 0.828125 -0.078125l0 3.15625q-0.796875 0.125 -1.484375 0.171875q-0.671875 0.0625 -1.484375 0.0625zm12.523132 0q-2.5625 0 -4.046875 -1.03125q-1.46875 -1.046875 -2.09375 -2.953125q-0.609375 -1.921875 -0.609375 -4.53125l0 -6.71875q0 -2.59375 0.609375 -4.515625q0.625 -1.921875 2.09375 -2.953125q1.484375 -1.046875 4.046875 -1.046875q2.5625 0 4.015625 1.046875q1.46875 1.03125 2.078125 2.953125q0.625 1.921875 0.625 4.515625l0 6.71875q0 2.609375 -0.625 4.53125q-0.609375 1.90625 -2.078125 2.953125q-1.453125 1.03125 -4.015625 1.03125zm0 -3.15625q1.25 0 1.75 -0.71875q0.5 -0.71875 0.59375 -1.890625q0.09375 -1.1875 0.09375 -2.46875l0 -7.234375q0 -1.328125 -0.09375 -2.484375q-0.09375 -1.15625 -0.59375 -1.890625q-0.5 -0.75 -1.75 -0.75q-1.234375 0 -1.765625 0.75q-0.515625 0.734375 -0.609375 1.890625q-0.09375 1.15625 -0.09375 2.484375l0 7.234375q0 1.28125 0.09375 2.46875q0.09375 1.171875 0.609375 1.890625q0.53125 0.71875 1.765625 0.71875zm16.0 3.15625q-2.828125 0 -4.5625 -1.765625q-1.71875 -1.78125 -1.953125 -4.703125l3.5625 -1.078125q0.3125 2.1875 1.078125 3.296875q0.765625 1.09375 2.234375 1.09375q1.171875 0 1.765625 -0.65625q0.59375 -0.65625 0.59375 -1.78125q0 -1.0 -0.4375 -1.796875q-0.4375 -0.796875 -1.4375 -1.640625l-3.953125 -3.40625q-1.203125 -1.03125 -2.03125 -2.3125q-0.8125 -1.28125 -0.8125 -3.328125q0 -1.828125 0.734375 -3.09375q0.75 -1.265625 2.078125 -1.921875q1.34375 -0.65625 3.140625 -0.65625q2.890625 0 4.40625 1.78125q1.515625 1.78125 1.765625 4.296875l-3.046875 1.078125q-0.15625 -1.203125 -0.484375 -2.09375q-0.3125 -0.90625 -0.921875 -1.40625q-0.59375 -0.5 -1.546875 -0.5q-1.046875 0 -1.671875 0.703125q-0.609375 0.703125 -0.609375 1.65625q0 0.609375 0.25 1.1875q0.265625 0.578125 0.90625 1.140625l4.078125 3.75q0.84375 0.765625 1.578125 1.65625q0.734375 0.875 1.21875 2.0q0.484375 1.109375 0.484375 2.59375q0 1.953125 -0.8125 3.28125q-0.796875 1.3125 -2.234375 1.96875q-1.4375 0.65625 -3.359375 0.65625z" fill-rule="nonzero"/><path fill="#673ab7" d="m44.217957 304.52948c0 -38.555542 31.255463 -69.81102 69.81103 -69.81102c18.515038 0 36.271736 7.355072 49.36384 20.447174c13.092117 13.092117 20.44719 30.848831 20.44719 49.363846c0 38.555573 -31.255463 69.811035 -69.81103 69.811035c-38.555565 0 -69.81103 -31.255463 -69.81103 -69.811035z" fill-rule="evenodd"/><path fill="#000000" fill-opacity="0.0" d="m44.2231 272.62466l139.62206 0l0 63.811035l-139.62206 0z" fill-rule="evenodd"/><path fill="#ffffff" d="m55.4717 311.7302l0 -13.125l2.046875 0l1.828125 5.609375l0.640625 2.109375l0.09375 0l0.609375 -2.109375l1.859375 -5.609375l2.0468712 0l0 13.125l-1.6093712 0l0 -6.5625q0 -0.484375 0.03125 -1.09375q0.03125 -0.625 0.078125 -1.28125q0.0625 -0.65625 0.109375 -1.25q0.046875 -0.59375 0.0625 -1.015625l-0.046875 0l-0.75 2.5625l-1.875 5.15625l-1.203125 0l-1.84375 -5.15625l-0.75 -2.5625l-0.046875 0q0.046875 0.421875 0.09375 1.015625q0.046875 0.59375 0.078125 1.25q0.046875 0.65625 0.078125 1.28125q0.03125 0.609375 0.03125 1.09375l0 6.5625l-1.5625 0zm15.484356 0.234375q-0.90625 0 -1.671875 -0.328125q-0.75 -0.328125 -1.1875 -0.9375q-0.4375 -0.625 -0.4375 -1.484375q0 -1.640625 1.640625 -2.484375q1.640625 -0.859375 5.390625 -1.15625q-0.015625 -0.65625 -0.265625 -1.21875q-0.25 -0.5625 -0.8125 -0.890625q-0.5625 -0.328125 -1.5 -0.328125q-0.625 0 -1.234375 0.171875q-0.609375 0.15625 -1.15625 0.4375q-0.546875 0.265625 -1.0 0.546875l-0.640625 -1.125q0.46875 -0.3125 1.15625 -0.640625q0.703125 -0.34375 1.5 -0.546875q0.796875 -0.203125 1.65625 -0.203125q1.34375 0 2.203125 0.5q0.875 0.5 1.296875 1.390625q0.4375 0.875 0.4375 2.109375l0 5.953125l-1.34375 0l-0.140625 -1.3125l-0.046875 0q-0.8125 0.625 -1.8125 1.09375q-1.0 0.453125 -2.03125 0.453125zm0.4375 -1.3125q0.84375 0 1.65625 -0.375q0.828125 -0.390625 1.640625 -1.0625l0 -2.5625q-2.078125 0.171875 -3.265625 0.5q-1.1875 0.3125 -1.6875 0.8125q-0.484375 0.484375 -0.484375 1.125q0 0.546875 0.296875 0.890625q0.296875 0.34375 0.78125 0.515625q0.5 0.15625 1.0625 0.15625zm14.51561 1.3125q-1.421875 0 -2.25 -0.5q-0.8125 -0.515625 -1.15625 -1.40625q-0.34375 -0.90625 -0.34375 -2.109375l0 -4.59375l-2.75 0l0 -1.25l2.8125 -0.09375l0.21875 -3.125l1.359375 0l0 3.125l4.78125 0l0 1.34375l-4.78125 0l0 4.609375q0 0.859375 0.21875 1.46875q0.21875 0.59375 0.75 0.90625q0.546875 0.296875 1.484375 0.296875q0.703125 0 1.265625 -0.125q0.5625 -0.125 1.078125 -0.328125l0.359375 1.203125q-0.65625 0.25 -1.390625 0.40625q-0.734375 0.171875 -1.65625 0.171875zm10.718735 0q-1.453125 0 -2.640625 -0.59375q-1.1875 -0.59375 -1.890625 -1.75q-0.703125 -1.15625 -0.703125 -2.765625q0 -1.578125 0.703125 -2.71875q0.703125 -1.140625 1.828125 -1.75q1.125 -0.609375 2.421875 -0.609375q1.40625 0 2.390625 0.578125q1.0 0.5625 1.53125 1.578125q0.53125 1.015625 0.53125 2.390625q0 0.28125 -0.03125 0.546875q-0.015625 0.265625 -0.046875 0.453125l-8.234375 0l0 -1.28125l7.25 0l-0.421875 0.46875q0 -1.71875 -0.796875 -2.578125q-0.78125 -0.859375 -2.125 -0.859375q-0.90625 0 -1.671875 0.4375q-0.765625 0.4375 -1.234375 1.28125q-0.453125 0.84375 -0.453125 2.0625q0 1.25 0.5 2.09375q0.5 0.84375 1.359375 1.28125q0.859375 0.421875 1.9375 0.421875q0.890625 0 1.59375 -0.25q0.703125 -0.25 1.375 -0.671875l0.59375 1.078125q-0.71875 0.484375 -1.65625 0.828125q-0.921875 0.328125 -2.109375 0.328125zm6.5624847 -0.234375l0 -9.71875l1.328125 0l0.140625 1.28125l0.03125 0q0.390625 -0.6875 0.890625 -1.09375q0.5 -0.421875 1.328125 -0.421875q0.71875 0 1.171875 0.421875q0.46875 0.40625 0.671875 1.25q0.421875 -0.78125 0.921875 -1.21875q0.515625 -0.453125 1.359375 -0.453125q1.015625 0 1.578125 0.765625q0.578125 0.765625 0.578125 2.234375l0 6.953125l-1.640625 0l0 -6.84375q0 -1.703125 -1.03125 -1.703125q-0.5 0 -0.84375 0.375q-0.328125 0.375 -0.71875 1.125l0 7.046875l-1.515625 0l0 -6.84375q0 -0.84375 -0.234375 -1.265625q-0.234375 -0.4375 -0.765625 -0.4375q-0.5 0 -0.875 0.375q-0.375 0.375 -0.734375 1.125l0 7.046875l-1.640625 0zm15.76561 0.234375q-0.90625 0 -1.671875 -0.328125q-0.75 -0.328125 -1.1875 -0.9375q-0.4375 -0.625 -0.4375 -1.484375q0 -1.640625 1.640625 -2.484375q1.640625 -0.859375 5.390625 -1.15625q-0.015625 -0.65625 -0.265625 -1.21875q-0.25 -0.5625 -0.8125 -0.890625q-0.5625 -0.328125 -1.5 -0.328125q-0.625 0 -1.234375 0.171875q-0.609375 0.15625 -1.15625 0.4375q-0.546875 0.265625 -1.0 0.546875l-0.640625 -1.125q0.46875 -0.3125 1.15625 -0.640625q0.703125 -0.34375 1.5 -0.546875q0.796875 -0.203125 1.65625 -0.203125q1.34375 0 2.203125 0.5q0.875 0.5 1.296875 1.390625q0.4375 0.875 0.4375 2.109375l0 5.953125l-1.34375 0l-0.140625 -1.3125l-0.046875 0q-0.8125 0.625 -1.8125 1.09375q-1.0 0.453125 -2.03125 0.453125zm0.4375 -1.3125q0.84375 0 1.65625 -0.375q0.828125 -0.390625 1.640625 -1.0625l0 -2.5625q-2.078125 0.171875 -3.265625 0.5q-1.1875 0.3125 -1.6875 0.8125q-0.484375 0.484375 -0.484375 1.125q0 0.546875 0.296875 0.890625q0.296875 0.34375 0.78125 0.515625q0.5 0.15625 1.0625 0.15625zm0.625 -10.28125l-0.859375 -0.828125l2.84375 -3.359375l1.15625 1.125l-3.140625 3.0625zm13.89061 11.59375q-1.421875 0 -2.25 -0.5q-0.8125 -0.515625 -1.15625 -1.40625q-0.34375 -0.90625 -0.34375 -2.109375l0 -4.59375l-2.75 0l0 -1.25l2.8125 -0.09375l0.21875 -3.125l1.359375 0l0 3.125l4.78125 0l0 1.34375l-4.78125 0l0 4.609375q0 0.859375 0.21875 1.46875q0.21875 0.59375 0.75 0.90625q0.546875 0.296875 1.484375 0.296875q0.703125 0 1.265625 -0.125q0.5625 -0.125 1.078125 -0.328125l0.359375 1.203125q-0.65625 0.25 -1.390625 0.40625q-0.734375 0.171875 -1.65625 0.171875zm10.437485 -0.234375l0 -8.375l-4.515625 0l0 -1.34375l6.15625 0l0 9.71875l-1.640625 0zm0.640625 -11.765625q-0.5625 0 -0.9375 -0.34375q-0.375 -0.34375 -0.375 -0.9375q0 -0.578125 0.375 -0.921875q0.375 -0.34375 0.9375 -0.34375q0.5625 0 0.9375 0.34375q0.375 0.34375 0.375 0.921875q0 0.59375 -0.375 0.9375q-0.375 0.34375 -0.9375 0.34375zm11.968735 12.0q-1.515625 0 -2.734375 -0.59375q-1.203125 -0.59375 -1.90625 -1.734375q-0.6875 -1.140625 -0.6875 -2.75q0 -1.640625 0.734375 -2.78125q0.75 -1.140625 1.984375 -1.734375q1.234375 -0.59375 2.703125 -0.59375q1.203125 0 2.0625 0.421875q0.875 0.40625 1.484375 0.984375l-0.828125 1.0625q-0.59375 -0.515625 -1.234375 -0.8125q-0.640625 -0.296875 -1.421875 -0.296875q-1.125 0 -1.984375 0.46875q-0.859375 0.46875 -1.328125 1.328125q-0.46875 0.84375 -0.46875 1.953125q0 1.109375 0.453125 1.953125q0.46875 0.828125 1.3125 1.296875q0.859375 0.46875 1.984375 0.46875q0.890625 0 1.640625 -0.359375q0.75 -0.359375 1.359375 -0.859375l0.734375 1.0625q-0.796875 0.71875 -1.796875 1.125q-0.984375 0.390625 -2.0625 0.390625zm9.999985 0q-0.90625 0 -1.671875 -0.328125q-0.75 -0.328125 -1.1875 -0.9375q-0.4375 -0.625 -0.4375 -1.484375q0 -1.640625 1.640625 -2.484375q1.640625 -0.859375 5.390625 -1.15625q-0.015625 -0.65625 -0.265625 -1.21875q-0.25 -0.5625 -0.8125 -0.890625q-0.5625 -0.328125 -1.5 -0.328125q-0.625 0 -1.234375 0.171875q-0.609375 0.15625 -1.15625 0.4375q-0.546875 0.265625 -1.0 0.546875l-0.640625 -1.125q0.46875 -0.3125 1.15625 -0.640625q0.703125 -0.34375 1.5 -0.546875q0.796875 -0.203125 1.65625 -0.203125q1.34375 0 2.203125 0.5q0.875 0.5 1.296875 1.390625q0.4375 0.875 0.4375 2.109375l0 5.953125l-1.34375 0l-0.140625 -1.3125l-0.046875 0q-0.8125 0.625 -1.8125 1.09375q-1.0 0.453125 -2.03125 0.453125zm0.4375 -1.3125q0.84375 0 1.65625 -0.375q0.828125 -0.390625 1.640625 -1.0625l0 -2.5625q-2.078125 0.171875 -3.265625 0.5q-1.1875 0.3125 -1.6875 0.8125q-0.484375 0.484375 -0.484375 1.125q0 0.546875 0.296875 0.890625q0.296875 0.34375 0.78125 0.515625q0.5 0.15625 1.0625 0.15625z" fill-rule="nonzero"/><path fill="#9c26b0" d="m236.54825 304.5422c0 -85.66066 69.44168 -155.10236 155.10236 -155.10236c41.13571 0 80.58661 16.341095 109.67395 45.42842c29.08731 29.087341 45.428436 68.53822 45.428436 109.673935c0 85.660675 -69.44171 155.10236 -155.10239 155.10236c-85.660675 0 -155.10236 -69.44168 -155.10236 -155.10236z" fill-rule="evenodd"/><path fill="#000000" fill-opacity="0.0" d="m236.54855 272.62466l310.20474 0l0 63.811035l-310.20474 0z" fill-rule="evenodd"/><path fill="#ffffff" d="m286.52597 294.93018l0 -26.234375l4.078125 0l3.6875 11.1875l1.28125 4.25l0.15625 0l1.234375 -4.25l3.734375 -11.1875l4.078125 0l0 26.234375l-3.203125 0l0 -13.125q0 -0.953125 0.0625 -2.1875q0.0625 -1.25 0.15625 -2.5625q0.09375 -1.328125 0.1875 -2.5q0.109375 -1.1875 0.15625 -2.03125l-0.125 0l-1.484375 5.125l-3.75 10.328125l-2.40625 0l-3.671875 -10.328125l-1.53125 -5.125l-0.078125 0q0.078125 0.84375 0.171875 2.03125q0.109375 1.171875 0.1875 2.5q0.078125 1.3125 0.140625 2.5625q0.0625 1.234375 0.0625 2.1875l0 13.125l-3.125 0zm30.96875 0.484375q-1.796875 0 -3.328125 -0.65625q-1.515625 -0.671875 -2.40625 -1.90625q-0.875 -1.234375 -0.875 -2.96875q0 -3.265625 3.28125 -4.96875q3.28125 -1.703125 10.796875 -2.296875q-0.03125 -1.328125 -0.53125 -2.4375q-0.5 -1.125 -1.625 -1.78125q-1.109375 -0.671875 -3.0 -0.671875q-1.234375 0 -2.453125 0.34375q-1.21875 0.34375 -2.328125 0.890625q-1.09375 0.53125 -2.015625 1.09375l-1.28125 -2.25q0.96875 -0.640625 2.34375 -1.296875q1.375 -0.65625 2.96875 -1.078125q1.609375 -0.421875 3.328125 -0.421875q2.6875 0 4.421875 1.0q1.734375 1.0 2.59375 2.78125q0.859375 1.78125 0.859375 4.21875l0 11.921875l-2.671875 0l-0.28125 -2.640625l-0.125 0q-1.59375 1.28125 -3.59375 2.203125q-2.0 0.921875 -4.078125 0.921875zm0.875 -2.640625q1.6875 0 3.328125 -0.765625q1.640625 -0.765625 3.265625 -2.125l0 -5.109375q-4.15625 0.359375 -6.53125 1.0q-2.375 0.640625 -3.359375 1.625q-0.984375 0.96875 -0.984375 2.25q0 1.078125 0.59375 1.78125q0.609375 0.703125 1.578125 1.03125q0.984375 0.3125 2.109375 0.3125zm19.12497 2.15625l0 -19.4375l2.71875 0l0.28125 4.59375l0.109375 0q1.53125 -2.359375 3.765625 -3.71875q2.234375 -1.359375 4.921875 -1.359375q1.078125 0 2.015625 0.1875q0.9375 0.171875 1.828125 0.609375l-0.765625 2.84375q-1.0 -0.359375 -1.71875 -0.515625q-0.71875 -0.15625 -1.875 -0.15625q-2.203125 0 -4.234375 1.265625q-2.015625 1.25 -3.765625 4.28125l0 11.40625l-3.28125 0zm22.390625 0l0 -28.484375l3.28125 0l0 19.28125l0.171875 0l10.46875 -10.234375l3.765625 0l-14.40625 14.15625l0 5.28125l-3.28125 0zm15.046875 0l-7.59375 -10.359375l2.0 -2.125l9.265625 12.484375l-3.671875 0zm17.921844 0.484375q-2.921875 0 -5.3125 -1.203125q-2.375 -1.203125 -3.78125 -3.5q-1.390625 -2.296875 -1.390625 -5.546875q0 -3.15625 1.390625 -5.4375q1.40625 -2.28125 3.671875 -3.5q2.265625 -1.21875 4.859375 -1.21875q2.796875 0 4.78125 1.140625q1.984375 1.140625 3.03125 3.1875q1.0625 2.03125 1.0625 4.796875q0 0.5625 -0.046875 1.078125q-0.03125 0.515625 -0.109375 0.921875l-16.4375 0l0 -2.5625l14.484375 0l-0.84375 0.921875q0 -3.4375 -1.578125 -5.15625q-1.578125 -1.71875 -4.265625 -1.71875q-1.796875 0 -3.34375 0.875q-1.53125 0.875 -2.453125 2.5625q-0.921875 1.671875 -0.921875 4.109375q0 2.53125 1.0 4.21875q1.0 1.671875 2.71875 2.53125q1.71875 0.859375 3.875 0.859375q1.765625 0 3.1875 -0.5q1.421875 -0.5 2.734375 -1.34375l1.203125 2.15625q-1.4375 0.96875 -3.296875 1.65625q-1.859375 0.671875 -4.21875 0.671875zm26.5625 0q-2.84375 0 -4.484375 -1.015625q-1.640625 -1.03125 -2.34375 -2.828125q-0.703125 -1.796875 -0.703125 -4.203125l0 -9.203125l-5.46875 0l0 -2.46875l5.59375 -0.203125l0.4375 -6.25l2.71875 0l0 6.25l9.5625 0l0 2.671875l-9.5625 0l0 9.25q0 1.71875 0.4375 2.921875q0.453125 1.1875 1.53125 1.796875q1.078125 0.59375 2.953125 0.59375q1.40625 0 2.515625 -0.234375q1.125 -0.25 2.171875 -0.640625l0.71875 2.390625q-1.328125 0.484375 -2.796875 0.828125q-1.453125 0.34375 -3.28125 0.34375zm20.87497 -0.484375l0 -16.765625l-9.046875 0l0 -2.671875l12.328125 0l0 19.4375l-3.28125 0zm1.28125 -23.515625q-1.125 0 -1.890625 -0.703125q-0.75 -0.703125 -0.75 -1.859375q0 -1.15625 0.75 -1.859375q0.765625 -0.703125 1.890625 -0.703125q1.125 0 1.875 0.703125q0.765625 0.703125 0.765625 1.859375q0 1.15625 -0.765625 1.859375q-0.75 0.703125 -1.875 0.703125zm13.796875 23.515625l0 -19.4375l2.71875 0l0.28125 3.3125l0.15625 0q1.53125 -1.640625 3.28125 -2.71875q1.765625 -1.078125 4.046875 -1.078125q3.4375 0 5.078125 2.0q1.640625 2.0 1.640625 5.84375l0 12.078125l-3.28125 0l0 -11.640625q0 -2.765625 -1.046875 -4.09375q-1.03125 -1.34375 -3.4375 -1.34375q-1.71875 0 -3.078125 0.890625q-1.359375 0.875 -3.078125 2.625l0 13.5625l-3.28125 0zm32.12497 8.953125q-2.84375 0 -4.84375 -0.640625q-2.0 -0.625 -3.0625 -1.828125q-1.0625 -1.203125 -1.0625 -2.921875q0 -1.15625 0.8125 -2.296875q0.828125 -1.140625 2.390625 -2.03125l0 -0.15625q-0.765625 -0.4375 -1.390625 -1.1875q-0.609375 -0.765625 -0.609375 -2.015625q0 -0.921875 0.59375 -1.890625q0.609375 -0.984375 1.734375 -1.75l0 -0.15625q-1.0 -0.765625 -1.703125 -2.03125q-0.703125 -1.28125 -0.703125 -3.0q0 -2.125 1.0625 -3.6875q1.0625 -1.5625 2.796875 -2.421875q1.734375 -0.859375 3.78125 -0.859375q1.640625 0 2.875 0.484375l8.046875 0l0 2.671875l-5.046875 0q0.6875 0.6875 1.15625 1.734375q0.484375 1.03125 0.484375 2.1875q0 2.078125 -1.0 3.578125q-1.0 1.5 -2.703125 2.3125q-1.6875 0.796875 -3.8125 0.796875q-0.765625 0 -1.625 -0.171875q-0.859375 -0.1875 -1.65625 -0.546875q-0.71875 0.4375 -1.125 1.0q-0.390625 0.5625 -0.390625 1.234375q0 1.125 1.046875 1.6875q1.0625 0.546875 2.984375 0.546875l4.359375 0q3.765625 0 5.578125 1.046875q1.828125 1.046875 1.828125 3.515625q0 1.796875 -1.328125 3.359375q-1.3125 1.5625 -3.734375 2.5q-2.421875 0.9375 -5.734375 0.9375zm-0.203125 -17.3125q1.234375 0 2.25 -0.5625q1.03125 -0.5625 1.625 -1.59375q0.609375 -1.046875 0.609375 -2.4375q0 -1.359375 -0.609375 -2.375q-0.59375 -1.03125 -1.625 -1.609375q-1.015625 -0.578125 -2.25 -0.578125q-1.203125 0 -2.21875 0.578125q-1.015625 0.578125 -1.640625 1.609375q-0.625 1.015625 -0.625 2.375q0 1.390625 0.625 2.4375q0.625 1.03125 1.640625 1.59375q1.015625 0.5625 2.21875 0.5625zm0.4375 14.921875q2.28125 0 3.921875 -0.5625q1.640625 -0.5625 2.515625 -1.4375q0.890625 -0.875 0.890625 -1.875q0 -1.40625 -1.109375 -1.890625q-1.09375 -0.484375 -3.34375 -0.484375l-3.796875 0q-0.84375 0 -1.578125 -0.078125q-0.734375 -0.078125 -1.375 -0.234375q-1.359375 0.765625 -1.921875 1.578125q-0.5625 0.828125 -0.5625 1.65625q0 1.53125 1.609375 2.421875q1.625 0.90625 4.75 0.90625z" fill-rule="nonzero"/><path fill="#ffffff" d="m311.13535 342.93018l0 -26.234375l6.46875 0q3.96875 0 6.65625 1.5q2.703125 1.5 4.109375 4.421875q1.40625 2.90625 1.40625 7.078125q0 4.1875 -1.390625 7.15625q-1.375 2.953125 -4.0625 4.515625q-2.671875 1.5625 -6.546875 1.5625l-6.640625 0zm3.3125 -2.71875l2.921875 0q3.0 0 4.984375 -1.25q1.984375 -1.265625 2.984375 -3.609375q1.0 -2.34375 1.0 -5.65625q0 -3.28125 -1.0 -5.59375q-1.0 -2.328125 -2.984375 -3.5q-1.984375 -1.1875 -4.984375 -1.1875l-2.921875 0l0 20.796875zm29.84372 2.71875l0 -16.765625l-9.046875 0l0 -2.671875l12.328125 0l0 19.4375l-3.28125 0zm1.28125 -23.515625q-1.125 0 -1.890625 -0.703125q-0.75 -0.703125 -0.75 -1.859375q0 -1.15625 0.75 -1.859375q0.765625 -0.703125 1.890625 -0.703125q1.125 0 1.875 0.703125q0.765625 0.703125 0.765625 1.859375q0 1.15625 -0.765625 1.859375q-0.75 0.703125 -1.875 0.703125zm21.921875 32.46875q-2.84375 0 -4.84375 -0.640625q-2.0 -0.625 -3.0625 -1.828125q-1.0625 -1.203125 -1.0625 -2.921875q0 -1.15625 0.8125 -2.296875q0.828125 -1.140625 2.390625 -2.03125l0 -0.15625q-0.765625 -0.4375 -1.390625 -1.1875q-0.609375 -0.765625 -0.609375 -2.015625q0 -0.921875 0.59375 -1.890625q0.609375 -0.984375 1.734375 -1.75l0 -0.15625q-1.0 -0.765625 -1.703125 -2.03125q-0.703125 -1.28125 -0.703125 -3.0q0 -2.125 1.0625 -3.6875q1.0625 -1.5625 2.796875 -2.421875q1.734375 -0.859375 3.78125 -0.859375q1.640625 0 2.875 0.484375l8.046875 0l0 2.671875l-5.046875 0q0.6875 0.6875 1.15625 1.734375q0.484375 1.03125 0.484375 2.1875q0 2.078125 -1.0 3.578125q-1.0 1.5 -2.703125 2.3125q-1.6875 0.796875 -3.8125 0.796875q-0.765625 0 -1.625 -0.171875q-0.859375 -0.1875 -1.65625 -0.546875q-0.71875 0.4375 -1.125 1.0q-0.390625 0.5625 -0.390625 1.234375q0 1.125 1.046875 1.6875q1.0625 0.546875 2.984375 0.546875l4.359375 0q3.765625 0 5.578125 1.046875q1.828125 1.046875 1.828125 3.515625q0 1.796875 -1.328125 3.359375q-1.3125 1.5625 -3.734375 2.5q-2.421875 0.9375 -5.734375 0.9375zm-0.203125 -17.3125q1.234375 0 2.25 -0.5625q1.03125 -0.5625 1.625 -1.59375q0.609375 -1.046875 0.609375 -2.4375q0 -1.359375 -0.609375 -2.375q-0.59375 -1.03125 -1.625 -1.609375q-1.015625 -0.578125 -2.25 -0.578125q-1.203125 0 -2.21875 0.578125q-1.015625 0.578125 -1.640625 1.609375q-0.625 1.015625 -0.625 2.375q0 1.390625 0.625 2.4375q0.625 1.03125 1.640625 1.59375q1.015625 0.5625 2.21875 0.5625zm0.4375 14.921875q2.28125 0 3.921875 -0.5625q1.640625 -0.5625 2.515625 -1.4375q0.890625 -0.875 0.890625 -1.875q0 -1.40625 -1.109375 -1.890625q-1.09375 -0.484375 -3.34375 -0.484375l-3.796875 0q-0.84375 0 -1.578125 -0.078125q-0.734375 -0.078125 -1.375 -0.234375q-1.359375 0.765625 -1.921875 1.578125q-0.5625 0.828125 -0.5625 1.65625q0 1.53125 1.609375 2.421875q1.625 0.90625 4.75 0.90625zm24.56247 -6.5625l0 -16.765625l-9.046875 0l0 -2.671875l12.328125 0l0 19.4375l-3.28125 0zm1.28125 -23.515625q-1.125 0 -1.890625 -0.703125q-0.75 -0.703125 -0.75 -1.859375q0 -1.15625 0.75 -1.859375q0.765625 -0.703125 1.890625 -0.703125q1.125 0 1.875 0.703125q0.765625 0.703125 0.765625 1.859375q0 1.15625 -0.765625 1.859375q-0.75 0.703125 -1.875 0.703125zm25.84375 24.0q-2.84375 0 -4.484375 -1.015625q-1.640625 -1.03125 -2.34375 -2.828125q-0.703125 -1.796875 -0.703125 -4.203125l0 -9.203125l-5.46875 0l0 -2.46875l5.59375 -0.203125l0.4375 -6.25l2.71875 0l0 6.25l9.5625 0l0 2.671875l-9.5625 0l0 9.25q0 1.71875 0.4375 2.921875q0.453125 1.1875 1.53125 1.796875q1.078125 0.59375 2.953125 0.59375q1.40625 0 2.515625 -0.234375q1.125 -0.25 2.171875 -0.640625l0.71875 2.390625q-1.328125 0.484375 -2.796875 0.828125q-1.453125 0.34375 -3.28125 0.34375zm18.078094 0q-1.796875 0 -3.328125 -0.65625q-1.515625 -0.671875 -2.40625 -1.90625q-0.875 -1.234375 -0.875 -2.96875q0 -3.265625 3.28125 -4.96875q3.28125 -1.703125 10.796875 -2.296875q-0.03125 -1.328125 -0.53125 -2.4375q-0.5 -1.125 -1.625 -1.78125q-1.109375 -0.671875 -3.0 -0.671875q-1.234375 0 -2.453125 0.34375q-1.21875 0.34375 -2.328125 0.890625q-1.09375 0.53125 -2.015625 1.09375l-1.28125 -2.25q0.96875 -0.640625 2.34375 -1.296875q1.375 -0.65625 2.96875 -1.078125q1.609375 -0.421875 3.328125 -0.421875q2.6875 0 4.421875 1.0q1.734375 1.0 2.59375 2.78125q0.859375 1.78125 0.859375 4.21875l0 11.921875l-2.671875 0l-0.28125 -2.640625l-0.125 0q-1.59375 1.28125 -3.59375 2.203125q-2.0 0.921875 -4.078125 0.921875zm0.875 -2.640625q1.6875 0 3.328125 -0.765625q1.640625 -0.765625 3.265625 -2.125l0 -5.109375q-4.15625 0.359375 -6.53125 1.0q-2.375 0.640625 -3.359375 1.625q-0.984375 0.96875 -0.984375 2.25q0 1.078125 0.59375 1.78125q0.609375 0.703125 1.578125 1.03125q0.984375 0.3125 2.109375 0.3125zm29.515625 2.640625q-3.078125 0 -4.71875 -1.78125q-1.640625 -1.78125 -1.640625 -5.21875l0 -19.28125l-6.640625 0l0 -2.6875l9.921875 0l0 22.203125q0 2.125 1.03125 3.09375q1.046875 0.953125 2.765625 0.953125q0.84375 0 1.71875 -0.21875q0.890625 -0.234375 1.96875 -0.703125l0.84375 2.46875q-1.328125 0.484375 -2.484375 0.828125q-1.15625 0.34375 -2.765625 0.34375z" fill-rule="nonzero"/><path fill="#673ab7" d="m599.4358 304.5396c0 -43.678345 35.408264 -79.086624 79.08661 -79.086624c20.975098 0 41.091064 8.332306 55.92267 23.163925c14.831604 14.8316345 23.16394 34.9476 23.16394 55.9227c0 43.678314 -35.408264 79.08661 -79.08661 79.08661c-43.678345 0 -79.08661 -35.408295 -79.08661 -79.08661z" fill-rule="evenodd"/><path fill="#000000" fill-opacity="0.0" d="m599.45667 272.62466l158.17328 0l0 63.811035l-158.17328 0z" fill-rule="evenodd"/><path fill="#ffffff" d="m626.5903 299.7302l0 -13.125l3.953125 0q1.453125 0 2.546875 0.375q1.09375 0.375 1.703125 1.21875q0.609375 0.828125 0.609375 2.265625q0 1.390625 -0.609375 2.28125q-0.609375 0.890625 -1.71875 1.34375q-1.09375 0.4375 -2.53125 0.4375l-2.296875 0l0 5.203125l-1.65625 0zm1.65625 -6.5625l2.09375 0q1.71875 0 2.546875 -0.65625q0.84375 -0.65625 0.84375 -2.046875q0 -1.421875 -0.84375 -1.96875q-0.84375 -0.546875 -2.546875 -0.546875l-2.09375 0l0 5.21875zm11.218689 6.5625l0 -9.71875l1.359375 0l0.140625 2.296875l0.0625 0q0.75 -1.171875 1.875 -1.84375q1.125 -0.6875 2.453125 -0.6875q0.546875 0 1.015625 0.09375q0.46875 0.078125 0.90625 0.296875l-0.375 1.421875q-0.5 -0.171875 -0.859375 -0.25q-0.359375 -0.09375 -0.9375 -0.09375q-1.109375 0 -2.125 0.640625q-1.0 0.625 -1.875 2.140625l0 5.703125l-1.640625 0zm14.0 0.234375q-0.90625 0 -1.671875 -0.328125q-0.75 -0.328125 -1.1875 -0.9375q-0.4375 -0.625 -0.4375 -1.484375q0 -1.640625 1.640625 -2.484375q1.640625 -0.859375 5.390625 -1.15625q-0.015625 -0.65625 -0.265625 -1.21875q-0.25 -0.5625 -0.8125 -0.890625q-0.5625 -0.328125 -1.5 -0.328125q-0.625 0 -1.234375 0.171875q-0.609375 0.15625 -1.15625 0.4375q-0.546875 0.265625 -1.0 0.546875l-0.640625 -1.125q0.46875 -0.3125 1.15625 -0.640625q0.703125 -0.34375 1.5 -0.546875q0.796875 -0.203125 1.65625 -0.203125q1.34375 0 2.203125 0.5q0.875 0.5 1.296875 1.390625q0.4375 0.875 0.4375 2.109375l0 5.953125l-1.34375 0l-0.140625 -1.3125l-0.046875 0q-0.8125 0.625 -1.8125 1.09375q-1.0 0.453125 -2.03125 0.453125zm0.4375 -1.3125q0.84375 0 1.65625 -0.375q0.828125 -0.390625 1.640625 -1.0625l0 -2.5625q-2.078125 0.171875 -3.265625 0.5q-1.1875 0.3125 -1.6875 0.8125q-0.484375 0.484375 -0.484375 1.125q0 0.546875 0.296875 0.890625q0.296875 0.34375 0.78125 0.515625q0.5 0.15625 1.0625 0.15625zm0.625 -10.28125l-0.859375 -0.828125l2.84375 -3.359375l1.15625 1.125l-3.140625 3.0625zm13.890625 11.59375q-1.421875 0 -2.25 -0.5q-0.8125 -0.515625 -1.15625 -1.40625q-0.34375 -0.90625 -0.34375 -2.109375l0 -4.59375l-2.75 0l0 -1.25l2.8125 -0.09375l0.21875 -3.125l1.359375 0l0 3.125l4.78125 0l0 1.34375l-4.78125 0l0 4.609375q0 0.859375 0.21875 1.46875q0.21875 0.59375 0.75 0.90625q0.546875 0.296875 1.484375 0.296875q0.703125 0 1.265625 -0.125q0.5625 -0.125 1.078125 -0.328125l0.359375 1.203125q-0.65625 0.25 -1.390625 0.40625q-0.734375 0.171875 -1.65625 0.171875zm10.4375 -0.234375l0 -8.375l-4.515625 0l0 -1.34375l6.15625 0l0 9.71875l-1.640625 0zm0.640625 -11.765625q-0.5625 0 -0.9375 -0.34375q-0.375 -0.34375 -0.375 -0.9375q0 -0.578125 0.375 -0.921875q0.375 -0.34375 0.9375 -0.34375q0.5625 0 0.9375 0.34375q0.375 0.34375 0.375 0.921875q0 0.59375 -0.375 0.9375q-0.375 0.34375 -0.9375 0.34375zm11.968689 12.0q-1.515625 0 -2.734375 -0.59375q-1.203125 -0.59375 -1.90625 -1.734375q-0.6875 -1.140625 -0.6875 -2.75q0 -1.640625 0.734375 -2.78125q0.75 -1.140625 1.984375 -1.734375q1.234375 -0.59375 2.703125 -0.59375q1.203125 0 2.0625 0.421875q0.875 0.40625 1.484375 0.984375l-0.828125 1.0625q-0.59375 -0.515625 -1.234375 -0.8125q-0.640625 -0.296875 -1.421875 -0.296875q-1.125 0 -1.984375 0.46875q-0.859375 0.46875 -1.328125 1.328125q-0.46875 0.84375 -0.46875 1.953125q0 1.109375 0.453125 1.953125q0.46875 0.828125 1.3125 1.296875q0.859375 0.46875 1.984375 0.46875q0.890625 0 1.640625 -0.359375q0.75 -0.359375 1.359375 -0.859375l0.734375 1.0625q-0.796875 0.71875 -1.796875 1.125q-0.984375 0.390625 -2.0625 0.390625zm11.078125 0q-1.28125 0 -2.375 -0.59375q-1.078125 -0.59375 -1.75 -1.734375q-0.671875 -1.140625 -0.671875 -2.75q0 -1.640625 0.671875 -2.78125q0.671875 -1.140625 1.75 -1.734375q1.09375 -0.59375 2.375 -0.59375q1.28125 0 2.359375 0.59375q1.09375 0.59375 1.765625 1.734375q0.671875 1.140625 0.671875 2.78125q0 1.609375 -0.671875 2.75q-0.671875 1.140625 -1.765625 1.734375q-1.078125 0.59375 -2.359375 0.59375zm0 -1.359375q0.9375 0 1.640625 -0.46875q0.703125 -0.46875 1.078125 -1.296875q0.375 -0.84375 0.375 -1.953125q0 -1.109375 -0.375 -1.953125q-0.375 -0.859375 -1.078125 -1.328125q-0.703125 -0.46875 -1.640625 -0.46875q-0.9375 0 -1.625 0.46875q-0.6875 0.46875 -1.078125 1.328125q-0.390625 0.84375 -0.390625 1.953125q0 1.109375 0.390625 1.953125q0.390625 0.828125 1.078125 1.296875q0.6875 0.46875 1.625 0.46875zm24.59375 1.359375q-1.453125 0 -2.640625 -0.59375q-1.1875 -0.59375 -1.890625 -1.75q-0.703125 -1.15625 -0.703125 -2.765625q0 -1.578125 0.703125 -2.71875q0.703125 -1.140625 1.828125 -1.75q1.125 -0.609375 2.421875 -0.609375q1.40625 0 2.390625 0.578125q1.0 0.5625 1.53125 1.578125q0.53125 1.015625 0.53125 2.390625q0 0.28125 -0.03125 0.546875q-0.015625 0.265625 -0.046875 0.453125l-8.234375 0l0 -1.28125l7.25 0l-0.421875 0.46875q0 -1.71875 -0.796875 -2.578125q-0.78125 -0.859375 -2.125 -0.859375q-0.90625 0 -1.671875 0.4375q-0.765625 0.4375 -1.234375 1.28125q-0.453125 0.84375 -0.453125 2.0625q0 1.25 0.5 2.09375q0.5 0.84375 1.359375 1.28125q0.859375 0.421875 1.9375 0.421875q0.890625 0 1.59375 -0.25q0.703125 -0.25 1.375 -0.671875l0.59375 1.078125q-0.71875 0.484375 -1.65625 0.828125q-0.921875 0.328125 -2.109375 0.328125z" fill-rule="nonzero"/><path fill="#ffffff" d="m641.6996 323.7302l0 -11.71875l-4.3125 0l0 -1.40625l10.3125 0l0 1.40625l-4.3125 0l0 11.71875l-1.6875 0zm13.4375 0.234375q-1.453125 0 -2.640625 -0.59375q-1.1875 -0.59375 -1.890625 -1.75q-0.703125 -1.15625 -0.703125 -2.765625q0 -1.578125 0.703125 -2.71875q0.703125 -1.140625 1.828125 -1.75q1.125 -0.609375 2.421875 -0.609375q1.40625 0 2.390625 0.578125q1.0 0.5625 1.53125 1.578125q0.53125 1.015625 0.53125 2.390625q0 0.28125 -0.03125 0.546875q-0.015625 0.265625 -0.046875 0.453125l-8.234375 0l0 -1.28125l7.25 0l-0.421875 0.46875q0 -1.71875 -0.796875 -2.578125q-0.78125 -0.859375 -2.125 -0.859375q-0.90625 0 -1.671875 0.4375q-0.765625 0.4375 -1.234375 1.28125q-0.453125 0.84375 -0.453125 2.0625q0 1.25 0.5 2.09375q0.5 0.84375 1.359375 1.28125q0.859375 0.421875 1.9375 0.421875q0.890625 0 1.59375 -0.25q0.703125 -0.25 1.375 -0.671875l0.59375 1.078125q-0.71875 0.484375 -1.65625 0.828125q-0.921875 0.328125 -2.109375 0.328125zm11.40625 0q-1.28125 0 -2.375 -0.59375q-1.078125 -0.59375 -1.75 -1.734375q-0.671875 -1.140625 -0.671875 -2.75q0 -1.640625 0.671875 -2.78125q0.671875 -1.140625 1.75 -1.734375q1.09375 -0.59375 2.375 -0.59375q1.28125 0 2.359375 0.59375q1.09375 0.59375 1.765625 1.734375q0.671875 1.140625 0.671875 2.78125q0 1.609375 -0.671875 2.75q-0.671875 1.140625 -1.765625 1.734375q-1.078125 0.59375 -2.359375 0.59375zm0 -1.359375q0.9375 0 1.640625 -0.46875q0.703125 -0.46875 1.078125 -1.296875q0.375 -0.84375 0.375 -1.953125q0 -1.109375 -0.375 -1.953125q-0.375 -0.859375 -1.078125 -1.328125q-0.703125 -0.46875 -1.640625 -0.46875q-0.9375 0 -1.625 0.46875q-0.6875 0.46875 -1.078125 1.328125q-0.390625 0.84375 -0.390625 1.953125q0 1.109375 0.390625 1.953125q0.390625 0.828125 1.078125 1.296875q0.6875 0.46875 1.625 0.46875zm-0.421875 -10.234375l-0.859375 -0.828125l2.84375 -3.359375l1.15625 1.125l-3.140625 3.0625zm9.34375 11.359375l0 -9.71875l1.359375 0l0.140625 2.296875l0.0625 0q0.75 -1.171875 1.875 -1.84375q1.125 -0.6875 2.453125 -0.6875q0.546875 0 1.015625 0.09375q0.46875 0.078125 0.90625 0.296875l-0.375 1.421875q-0.5 -0.171875 -0.859375 -0.25q-0.359375 -0.09375 -0.9375 -0.09375q-1.109375 0 -2.125 0.640625q-1.0 0.625 -1.875 2.140625l0 5.703125l-1.640625 0zm15.390564 0l0 -8.375l-4.515625 0l0 -1.34375l6.15625 0l0 9.71875l-1.640625 0zm0.640625 -11.765625q-0.5625 0 -0.9375 -0.34375q-0.375 -0.34375 -0.375 -0.9375q0 -0.578125 0.375 -0.921875q0.375 -0.34375 0.9375 -0.34375q0.5625 0 0.9375 0.34375q0.375 0.34375 0.375 0.921875q0 0.59375 -0.375 0.9375q-0.375 0.34375 -0.9375 0.34375zm11.96875 12.0q-1.515625 0 -2.734375 -0.59375q-1.203125 -0.59375 -1.90625 -1.734375q-0.6875 -1.140625 -0.6875 -2.75q0 -1.640625 0.734375 -2.78125q0.75 -1.140625 1.984375 -1.734375q1.234375 -0.59375 2.703125 -0.59375q1.203125 0 2.0625 0.421875q0.875 0.40625 1.484375 0.984375l-0.828125 1.0625q-0.59375 -0.515625 -1.234375 -0.8125q-0.640625 -0.296875 -1.421875 -0.296875q-1.125 0 -1.984375 0.46875q-0.859375 0.46875 -1.328125 1.328125q-0.46875 0.84375 -0.46875 1.953125q0 1.109375 0.453125 1.953125q0.46875 0.828125 1.3125 1.296875q0.859375 0.46875 1.984375 0.46875q0.890625 0 1.640625 -0.359375q0.75 -0.359375 1.359375 -0.859375l0.734375 1.0625q-0.796875 0.71875 -1.796875 1.125q-0.984375 0.390625 -2.0625 0.390625zm11.078125 0q-1.28125 0 -2.375 -0.59375q-1.078125 -0.59375 -1.75 -1.734375q-0.671875 -1.140625 -0.671875 -2.75q0 -1.640625 0.671875 -2.78125q0.671875 -1.140625 1.75 -1.734375q1.09375 -0.59375 2.375 -0.59375q1.28125 0 2.359375 0.59375q1.09375 0.59375 1.765625 1.734375q0.671875 1.140625 0.671875 2.78125q0 1.609375 -0.671875 2.75q-0.671875 1.140625 -1.765625 1.734375q-1.078125 0.59375 -2.359375 0.59375zm0 -1.359375q0.9375 0 1.640625 -0.46875q0.703125 -0.46875 1.078125 -1.296875q0.375 -0.84375 0.375 -1.953125q0 -1.109375 -0.375 -1.953125q-0.375 -0.859375 -1.078125 -1.328125q-0.703125 -0.46875 -1.640625 -0.46875q-0.9375 0 -1.625 0.46875q-0.6875 0.46875 -1.078125 1.328125q-0.390625 0.84375 -0.390625 1.953125q0 1.109375 0.390625 1.953125q0.390625 0.828125 1.078125 1.296875q0.6875 0.46875 1.625 0.46875z" fill-rule="nonzero"/><path fill="#9c26b0" d="m810.297 304.5392c0 -29.345001 23.795898 -53.13385 53.149597 -53.13385c14.096191 0 27.61499 5.5980225 37.58246 15.562561c9.967468 9.964508 15.567139 23.47931 15.567139 37.57129c0 29.345032 -23.795898 53.13388 -53.149597 53.13388c-29.353699 0 -53.149597 -23.788849 -53.149597 -53.13388z" fill-rule="evenodd"/><path fill="#000000" fill-opacity="0.0" d="m810.3333 272.62466l106.299255 0l0 63.811035l-106.299255 0z" fill-rule="evenodd"/><path fill="#ffffff" d="m822.9205 311.7302l0 -13.125l2.046875 0l1.828125 5.609375l0.640625 2.109375l0.09375 0l0.609375 -2.109375l1.859375 -5.609375l2.046875 0l0 13.125l-1.609375 0l0 -6.5625q0 -0.484375 0.03125 -1.09375q0.03125 -0.625 0.078125 -1.28125q0.0625 -0.65625 0.109375 -1.25q0.046875 -0.59375 0.0625 -1.015625l-0.046875 0l-0.75 2.5625l-1.875 5.15625l-1.203125 0l-1.84375 -5.15625l-0.75 -2.5625l-0.046875 0q0.046875 0.421875 0.09375 1.015625q0.046875 0.59375 0.078125 1.25q0.046875 0.65625 0.078125 1.28125q0.03125 0.609375 0.03125 1.09375l0 6.5625l-1.5625 0zm15.484375 0.234375q-1.734375 0 -2.5625 -1.0q-0.8125 -1.0 -0.8125 -2.921875l0 -6.03125l1.65625 0l0 5.8125q0 1.390625 0.5 2.0625q0.515625 0.65625 1.734375 0.65625q0.84375 0 1.53125 -0.421875q0.6875 -0.4375 1.484375 -1.375l0 -6.734375l1.640625 0l0 9.71875l-1.328125 0l-0.140625 -1.703125l-0.078125 0q-0.75 0.84375 -1.625 1.390625q-0.875 0.546875 -2.0 0.546875zm0.5625 -11.59375l-0.859375 -0.828125l2.84375 -3.359375l1.15625 1.125l-3.140625 3.0625zm12.71875 11.59375q-1.421875 0 -2.671875 -0.453125q-1.234375 -0.46875 -2.109375 -1.0625l0.765625 -1.078125q0.828125 0.59375 1.84375 0.953125q1.03125 0.359375 2.375 0.359375q1.234375 0 1.84375 -0.453125q0.609375 -0.453125 0.609375 -1.0625q0 -0.28125 -0.109375 -0.515625q-0.109375 -0.234375 -0.421875 -0.453125q-0.3125 -0.234375 -0.921875 -0.421875q-0.59375 -0.203125 -1.59375 -0.40625q-1.890625 -0.40625 -2.84375 -1.078125q-0.953125 -0.6875 -0.953125 -1.765625q0 -1.171875 1.015625 -1.953125q1.03125 -0.796875 3.03125 -0.796875q1.125 0 2.15625 0.375q1.046875 0.359375 1.765625 0.859375l-0.796875 1.0625q-0.671875 -0.484375 -1.515625 -0.75q-0.828125 -0.28125 -1.75 -0.28125q-0.84375 0 -1.34375 0.203125q-0.484375 0.1875 -0.6875 0.515625q-0.203125 0.3125 -0.203125 0.6875q0 0.625 0.65625 0.984375q0.671875 0.34375 2.15625 0.640625q1.625 0.34375 2.484375 0.765625q0.875 0.40625 1.203125 0.953125q0.328125 0.53125 0.328125 1.28125q0 0.796875 -0.5 1.453125q-0.5 0.640625 -1.46875 1.046875q-0.953125 0.390625 -2.34375 0.390625zm12.109375 -0.234375l0 -8.375l-4.515625 0l0 -1.34375l6.15625 0l0 9.71875l-1.640625 0zm0.640625 -11.765625q-0.5625 0 -0.9375 -0.34375q-0.375 -0.34375 -0.375 -0.9375q0 -0.578125 0.375 -0.921875q0.375 -0.34375 0.9375 -0.34375q0.5625 0 0.9375 0.34375q0.375 0.34375 0.375 0.921875q0 0.59375 -0.375 0.9375q-0.375 0.34375 -0.9375 0.34375zm11.968689 12.0q-1.515625 0 -2.734375 -0.59375q-1.203125 -0.59375 -1.90625 -1.734375q-0.6875 -1.140625 -0.6875 -2.75q0 -1.640625 0.734375 -2.78125q0.75 -1.140625 1.984375 -1.734375q1.234375 -0.59375 2.703125 -0.59375q1.203125 0 2.0625 0.421875q0.875 0.40625 1.484375 0.984375l-0.828125 1.0625q-0.59375 -0.515625 -1.234375 -0.8125q-0.640625 -0.296875 -1.421875 -0.296875q-1.125 0 -1.984375 0.46875q-0.859375 0.46875 -1.328125 1.328125q-0.46875 0.84375 -0.46875 1.953125q0 1.109375 0.453125 1.953125q0.46875 0.828125 1.3125 1.296875q0.859375 0.46875 1.984375 0.46875q0.890625 0 1.640625 -0.359375q0.75 -0.359375 1.359375 -0.859375l0.734375 1.0625q-0.796875 0.71875 -1.796875 1.125q-0.984375 0.390625 -2.0625 0.390625zm10.0 0q-0.90625 0 -1.671875 -0.328125q-0.75 -0.328125 -1.1875 -0.9375q-0.4375 -0.625 -0.4375 -1.484375q0 -1.640625 1.640625 -2.484375q1.640625 -0.859375 5.390625 -1.15625q-0.015625 -0.65625 -0.265625 -1.21875q-0.25 -0.5625 -0.8125 -0.890625q-0.5625 -0.328125 -1.5 -0.328125q-0.625 0 -1.234375 0.171875q-0.609375 0.15625 -1.15625 0.4375q-0.546875 0.265625 -1.0 0.546875l-0.640625 -1.125q0.46875 -0.3125 1.15625 -0.640625q0.703125 -0.34375 1.5 -0.546875q0.796875 -0.203125 1.65625 -0.203125q1.34375 0 2.203125 0.5q0.875 0.5 1.296875 1.390625q0.4375 0.875 0.4375 2.109375l0 5.953125l-1.34375 0l-0.140625 -1.3125l-0.046875 0q-0.8125 0.625 -1.8125 1.09375q-1.0 0.453125 -2.03125 0.453125zm0.4375 -1.3125q0.84375 0 1.65625 -0.375q0.828125 -0.390625 1.640625 -1.0625l0 -2.5625q-2.078125 0.171875 -3.265625 0.5q-1.1875 0.3125 -1.6875 0.8125q-0.484375 0.484375 -0.484375 1.125q0 0.546875 0.296875 0.890625q0.296875 0.34375 0.78125 0.515625q0.5 0.15625 1.0625 0.15625zm12.84375 1.3125q-1.421875 0 -2.671875 -0.453125q-1.234375 -0.46875 -2.109375 -1.0625l0.765625 -1.078125q0.828125 0.59375 1.84375 0.953125q1.03125 0.359375 2.375 0.359375q1.234375 0 1.84375 -0.453125q0.609375 -0.453125 0.609375 -1.0625q0 -0.28125 -0.109375 -0.515625q-0.109375 -0.234375 -0.421875 -0.453125q-0.3125 -0.234375 -0.921875 -0.421875q-0.59375 -0.203125 -1.59375 -0.40625q-1.890625 -0.40625 -2.84375 -1.078125q-0.953125 -0.6875 -0.953125 -1.765625q0 -1.171875 1.015625 -1.953125q1.03125 -0.796875 3.03125 -0.796875q1.125 0 2.15625 0.375q1.046875 0.359375 1.765625 0.859375l-0.796875 1.0625q-0.671875 -0.484375 -1.515625 -0.75q-0.828125 -0.28125 -1.75 -0.28125q-0.84375 0 -1.34375 0.203125q-0.484375 0.1875 -0.6875 0.515625q-0.203125 0.3125 -0.203125 0.6875q0 0.625 0.65625 0.984375q0.671875 0.34375 2.15625 0.640625q1.625 0.34375 2.484375 0.765625q0.875 0.40625 1.203125 0.953125q0.328125 0.53125 0.328125 1.28125q0 0.796875 -0.5 1.453125q-0.5 0.640625 -1.46875 1.046875q-0.953125 0.390625 -2.34375 0.390625z" fill-rule="nonzero"/></g></svg>