<svg version="1.1" viewBox="0.0 0.0 960.0 540.0" fill="none" stroke="none" stroke-linecap="square" stroke-miterlimit="10" xmlns:xlink="http://www.w3.org/1999/xlink" xmlns="http://www.w3.org/2000/svg"><clipPath id="gc6f80d1ff_0_0.0"><path d="m0 0l960.0 0l0 540.0l-960.0 0l0 -540.0z" clip-rule="nonzero"/></clipPath><g clip-path="url(#gc6f80d1ff_0_0.0)"><path fill="#ffffff" d="m0 0l960.0 0l0 540.0l-960.0 0z" fill-rule="evenodd"/><path fill="#e91d63" d="m516.31494 307.98425l-36.31494 40.787415l-36.314972 -40.787415z" fill-rule="evenodd"/><path fill="#e91d63" d="m-0.002624672 0l960.0 0l0 328.0l-960.0 0z" fill-rule="evenodd"/><path fill="#000000" fill-opacity="0.0" d="m80.48819 140.05249l799.02356 0l0 149.00787l-799.02356 0z" fill-rule="evenodd"/><path fill="#ffffff" d="m259.59583 260.86035l13.765625 -64.79686l8.71875 0l13.84375 64.79686l-8.5625 0l-2.96875 -16.312485l-13.1875 0l-3.125 16.312485l-8.484375 0zm12.796875 -22.79686l10.8125 0l-5.4375 -29.203125l-5.375 29.203125zm30.09436 22.79686l0 -64.79686l13.03125 0q6.484375 0 10.71875 1.71875q4.25 1.71875 6.28125 5.515625q2.046875 3.796875 2.046875 9.96875q0 3.75 -0.8125 6.828125q-0.796875 3.078125 -2.5625 5.203125q-1.75 2.125 -4.625 3.078125l9.1875 32.48436l-8.71875 0l-8.46875 -30.406235l-7.046875 0l0 30.406235l-9.03125 0zm9.03125 -36.874985l3.4375 0q3.84375 0 6.234375 -0.953125q2.40625 -0.96875 3.53125 -3.28125q1.125 -2.328125 1.125 -6.484375q0 -5.6875 -2.09375 -8.203125q-2.078125 -2.515625 -8.234375 -2.515625l-4.0 0l0 21.4375zm38.47809 36.874985l0 -58.07811l-10.953125 0l0 -6.71875l30.640625 0l0 6.71875l-10.640625 0l0 58.07811l-9.046875 0zm25.930573 0l0 -64.79686l9.03125 0l0 28.0l16.640625 0l0 -28.0l9.046875 0l0 64.79686l-9.046875 0l0 -30.312485l-16.640625 0l0 30.312485l-9.03125 0zm61.598724 0.71875q-7.046875 0 -10.8125 -2.796875q-3.75 -2.7968597 -5.109375 -7.8749847q-1.359375 -5.09375 -1.359375 -11.890625l0 -42.953125l8.640625 0l0 43.359375q0 4.15625 0.546875 7.59375q0.5625 3.4375 2.4375 5.4375q1.890625 2.0 5.65625 2.0q3.828125 0 5.671875 -2.0q1.84375 -2.0 2.40625 -5.4375q0.5625 -3.4375 0.5625 -7.59375l0 -43.359375l8.546875 0l0 42.953125q0 6.796875 -1.359375 11.890625q-1.359375 5.078125 -5.078125 7.8749847q-3.71875 2.796875 -10.75 2.796875zm26.721222 -0.71875l0 -64.79686l13.03125 0q6.484375 0 10.71875 1.71875q4.25 1.71875 6.28125 5.515625q2.046875 3.796875 2.046875 9.96875q0 3.75 -0.8125 6.828125q-0.796875 3.078125 -2.5625 5.203125q-1.75 2.125 -4.625 3.078125l9.1875 32.48436l-8.71875 0l-8.46875 -30.406235l-7.046875 0l0 30.406235l-9.03125 0zm9.03125 -36.874985l3.4375 0q3.84375 0 6.234375 -0.953125q2.40625 -0.96875 3.53125 -3.28125q1.125 -2.328125 1.125 -6.484375q0 -5.6875 -2.09375 -8.203125q-2.078125 -2.515625 -8.234375 -2.515625l-4.0 0l0 21.4375zm50.808624 36.874985l0 -64.79686l16.078125 0q5.828125 0 9.3125 2.125q3.484375 2.109375 5.078125 6.109375q1.609375 4.0 1.609375 9.6875q0 5.109375 -1.8125 8.875q-1.796875 3.765625 -5.3125 5.8125q-3.515625 2.03125 -8.796875 2.03125l-7.125 0l0 30.156235l-9.03125 0zm9.03125 -36.64061l4.15625 0q3.921875 0 6.15625 -0.875q2.25 -0.890625 3.203125 -3.078125q0.96875 -2.203125 0.96875 -6.203125q0 -4.640625 -0.6875 -7.125q-0.671875 -2.484375 -2.84375 -3.4375q-2.15625 -0.953125 -6.71875 -0.953125l-4.234375 0l0 21.671875zm29.368713 36.64061l0 -64.79686l25.109375 0l0 6.71875l-16.078125 0l0 21.4375l13.046875 0l0 6.40625l-13.046875 0l0 23.75l16.234375 0l0 6.4843597l-25.265625 0zm32.559998 0l0 -64.79686l13.03125 0q6.484375 0 10.71875 1.71875q4.25 1.71875 6.28125 5.515625q2.046875 3.796875 2.046875 9.96875q0 3.75 -0.8125 6.828125q-0.796875 3.078125 -2.5625 5.203125q-1.75 2.125 -4.625 3.078125l9.1875 32.48436l-8.71875 0l-8.46875 -30.406235l-7.046875 0l0 30.406235l-9.03125 0zm9.03125 -36.874985l3.4375 0q3.84375 0 6.234375 -0.953125q2.40625 -0.96875 3.53125 -3.28125q1.125 -2.328125 1.125 -6.484375q0 -5.6875 -2.09375 -8.203125q-2.078125 -2.515625 -8.234375 -2.515625l-4.0 0l0 21.4375zm32.48871 36.874985l0 -64.79686l25.109375 0l0 6.71875l-16.078125 0l0 21.4375l13.046875 0l0 6.40625l-13.046875 0l0 23.75l16.234375 0l0 6.4843597l-25.265625 0zm47.82556 0.71875q-5.59375 0 -9.3125 -2.390625q-3.71875 -2.40625 -5.640625 -6.6406097q-1.921875 -4.25 -2.234375 -9.84375l8.0 -2.15625q0.234375 3.4375 1.078125 6.640625q0.84375 3.1875 2.75 5.234375q1.921875 2.03125 5.359375 2.03125q3.53125 0 5.328125 -1.953125q1.796875 -1.953125 1.796875 -5.640625q0 -4.40625 -2.0 -7.078125q-2.0 -2.6875 -5.03125 -5.40625l-10.890625 -9.59375q-3.203125 -2.796875 -4.71875 -6.109375q-1.515625 -3.328125 -1.515625 -8.21875q0 -7.109375 4.078125 -11.03125q4.078125 -3.921875 11.125 -3.921875q3.828125 0 6.75 1.0q2.921875 1.0 4.875 3.078125q1.96875 2.078125 3.125 5.25q1.171875 3.15625 1.5625 7.390625l-7.671875 2.078125q-0.25 -3.203125 -0.96875 -5.875q-0.71875 -2.6875 -2.515625 -4.328125q-1.796875 -1.640625 -5.15625 -1.640625q-3.359375 0 -5.25 1.8125q-1.875 1.796875 -1.875 5.3125q0 2.96875 1.0 4.890625q1.0 1.90625 3.234375 3.90625l10.96875 9.609375q3.671875 3.1875 6.46875 7.640625q2.8125 4.4375 2.8125 10.515625q0 4.796875 -2.0 8.28125q-2.0 3.4843597 -5.484375 5.3281097q-3.484375 1.828125 -8.046875 1.828125z" fill-rule="nonzero"/><path fill="#000000" fill-opacity="0.0" d="m43.16798 356.77167l869.5433 0l0 132.34644l-869.5433 0z" fill-rule="evenodd"/><path fill="#424242" d="m211.29335 440.02487l8.265625 -38.875l5.234375 0l8.296875 38.875l-5.140625 0l-1.765625 -9.796875l-7.921875 0l-1.875 9.796875l-5.09375 0zm7.6875 -13.6875l6.484375 0l-3.265625 -17.515625l-3.21875 17.515625zm18.100418 13.6875l0 -38.875l5.125 0l0 38.875l-5.125 0zm14.49202 0.390625q-1.640625 0 -2.546875 -0.859375q-0.90625 -0.875 -1.265625 -2.171875q-0.359375 -1.296875 -0.359375 -2.640625l0 -22.46875l5.125 0l0 20.9375q0 1.484375 0.4375 2.328125q0.4375 0.84375 1.78125 0.84375q0.859375 0 1.7968597 -0.5q0.9375 -0.515625 1.796875 -1.234375l0 -22.375l5.140625 0l0 27.75l-5.140625 0l0 -2.734375q-1.34375 1.296875 -3.0468597 2.21875q-1.703125 0.90625 -3.71875 0.90625zm17.135666 -0.390625l0 -27.75l5.140625 0l0 2.734375q1.390625 -1.28125 3.0625 -2.1875q1.6875 -0.921875 3.703125 -0.921875q1.671875 0 2.5625 0.859375q0.890625 0.859375 1.25 2.15625q0.359375 1.296875 0.359375 2.640625l0 22.46875l-5.140625 0l0 -20.96875q0 -1.5 -0.4375 -2.3125q-0.421875 -0.8125 -1.765625 -0.8125q-0.859375 0 -1.796875 0.5q-0.9375 0.5 -1.796875 1.21875l0 22.375l-5.140625 0zm28.697021 0.390625q-3.0625 0 -4.84375 -1.25q-1.78125 -1.25 -2.53125 -3.546875q-0.734375 -2.3125 -0.734375 -5.4375l0 -8.0625q0 -3.125 0.734375 -5.421875q0.75 -2.296875 2.53125 -3.546875q1.78125 -1.25 4.84375 -1.25q3.078125 0 4.828125 1.25q1.75 1.25 2.484375 3.546875q0.75 2.296875 0.75 5.421875l0 8.0625q0 3.125 -0.75 5.4375q-0.734375 2.296875 -2.484375 3.546875q-1.75 1.25 -4.828125 1.25zm0 -3.796875q1.5 0 2.09375 -0.859375q0.59375 -0.875 0.71875 -2.28125q0.125 -1.421875 0.125 -2.953125l0 -8.6875q0 -1.59375 -0.125 -2.984375q-0.125 -1.390625 -0.71875 -2.28125q-0.59375 -0.890625 -2.09375 -0.890625q-1.484375 0 -2.109375 0.890625q-0.625 0.890625 -0.75 2.28125q-0.109375 1.390625 -0.109375 2.984375l0 8.6875q0 1.53125 0.109375 2.953125q0.125 1.40625 0.75 2.28125q0.625 0.859375 2.109375 0.859375zm30.20456 3.796875q-3.515625 0 -5.25 -2.5625q-1.71875 -2.578125 -1.71875 -8.71875l0 -5.375q0 -3.171875 0.53125 -5.875q0.53125 -2.71875 1.984375 -4.34375q1.46875 -1.640625 4.296875 -1.640625q1.390625 0 2.546875 0.625q1.15625 0.625 2.0625 1.53125l0 -12.90625l5.140625 0l0 38.875l-5.140625 0l0 -1.78125q-0.90625 0.96875 -1.984375 1.578125q-1.078125 0.59375 -2.46875 0.59375zm1.28125 -4.03125q0.734375 0 1.546875 -0.265625q0.8125 -0.265625 1.625 -0.796875l0 -18.1875q-0.671875 -0.484375 -1.484375 -0.84375q-0.8125 -0.359375 -1.78125 -0.359375q-1.765625 0 -2.390625 1.703125q-0.625 1.703125 -0.625 4.109375l0 7.8125q0 1.921875 0.203125 3.484375q0.21875 1.5625 0.890625 2.453125q0.671875 0.890625 2.015625 0.890625zm21.122314 4.03125q-3.0625 0 -4.84375 -1.25q-1.78125 -1.25 -2.53125 -3.546875q-0.734375 -2.3125 -0.734375 -5.4375l0 -8.0625q0 -3.125 0.734375 -5.421875q0.75 -2.296875 2.53125 -3.546875q1.78125 -1.25 4.84375 -1.25q3.078125 0 4.828125 1.25q1.75 1.25 2.484375 3.546875q0.75 2.296875 0.75 5.421875l0 8.0625q0 3.125 -0.75 5.4375q-0.734375 2.296875 -2.484375 3.546875q-1.75 1.25 -4.828125 1.25zm0 -3.796875q1.5 0 2.09375 -0.859375q0.59375 -0.875 0.71875 -2.28125q0.125 -1.421875 0.125 -2.953125l0 -8.6875q0 -1.59375 -0.125 -2.984375q-0.125 -1.390625 -0.71875 -2.28125q-0.59375 -0.890625 -2.09375 -0.890625q-1.484375 0 -2.109375 0.890625q-0.625 0.890625 -0.75 2.28125q-0.109375 1.390625 -0.109375 2.984375l0 8.6875q0 1.53125 0.109375 2.953125q0.125 1.40625 0.75 2.28125q0.625 0.859375 2.109375 0.859375zm34.23578 3.84375q-4.234375 0 -6.5 -1.671875q-2.25 -1.6875 -3.0625 -4.734375q-0.8125 -3.0625 -0.8125 -7.140625l0 -25.765625l5.1875 0l0 26.015625q0 2.484375 0.328125 4.5625q0.34375 2.0625 1.46875 3.265625q1.125 1.1875 3.390625 1.1875q2.296875 0 3.390625 -1.1875q1.109375 -1.203125 1.4375 -3.265625q0.34375 -2.078125 0.34375 -4.5625l0 -26.015625l5.140625 0l0 25.765625q0 4.078125 -0.8125 7.140625q-0.8125 3.046875 -3.046875 4.734375q-2.234375 1.671875 -6.453125 1.671875zm16.032837 -0.4375l0 -38.875l3.6875 0l11.046875 25.8125l0 -25.8125l4.5 0l0 38.875l-3.453125 0l-11.1875 -26.546875l0 26.546875l-4.59375 0zm25.625305 0l0 -38.875l5.328125 0l0 38.875l-5.328125 0zm21.357117 0.4375q-4.125 0 -6.40625 -1.734375q-2.28125 -1.734375 -3.171875 -4.65625q-0.890625 -2.921875 -0.890625 -6.53125l0 -13.71875q0 -3.9375 0.890625 -6.859375q0.890625 -2.9375 3.171875 -4.546875q2.28125 -1.609375 6.40625 -1.609375q3.65625 0 5.78125 1.34375q2.140625 1.34375 3.078125 3.84375q0.9375 2.5 0.9375 6.0l0 3.078125l-5.140625 0l0 -2.75q0 -2.15625 -0.21875 -3.8125q-0.21875 -1.65625 -1.171875 -2.5625q-0.953125 -0.90625 -3.21875 -0.90625q-2.296875 0 -3.359375 0.984375q-1.046875 0.96875 -1.359375 2.78125q-0.3125 1.796875 -0.3125 4.1875l0 15.421875q0 2.921875 0.46875 4.625q0.484375 1.703125 1.578125 2.421875q1.109375 0.71875 2.984375 0.71875q2.21875 0 3.171875 -0.984375q0.953125 -0.984375 1.1875 -2.703125q0.25 -1.734375 0.25 -4.03125l0 -2.890625l5.140625 0l0 2.890625q0 3.546875 -0.875 6.265625q-0.859375 2.703125 -2.96875 4.21875q-2.109375 1.515625 -5.953125 1.515625zm14.985687 -0.4375l0 -38.875l15.0625 0l0 4.03125l-9.640625 0l0 12.859375l7.8125 0l0 3.84375l-7.8125 0l0 14.25l9.734375 0l0 3.890625l-15.15625 0zm29.567291 0.4375q-4.234375 0 -6.5 -1.671875q-2.25 -1.6875 -3.0625 -4.734375q-0.8125 -3.0625 -0.8125 -7.140625l0 -25.765625l5.1875 0l0 26.015625q0 2.484375 0.328125 4.5625q0.34375 2.0625 1.46875 3.265625q1.125 1.1875 3.390625 1.1875q2.296875 0 3.390625 -1.1875q1.109375 -1.203125 1.4375 -3.265625q0.34375 -2.078125 0.34375 -4.5625l0 -26.015625l5.140625 0l0 25.765625q0 4.078125 -0.8125 7.140625q-0.8125 3.046875 -3.046875 4.734375q-2.234375 1.671875 -6.453125 1.671875zm16.032806 -0.4375l0 -38.875l8.9219055 0q2.640625 0 4.578125 0.578125q1.953125 0.5625 3.25 1.765625q1.296875 1.203125 1.90625 3.0625q0.625 1.84375 0.625 4.328125q0 2.40625 -0.59375 4.15625q-0.59375 1.75 -1.828125 2.765625q-1.21875 1.0 -3.140625 1.296875q2.359375 0.515625 3.796875 1.796875q1.4375 1.265625 2.125 3.265625q0.703125 1.984375 0.703125 4.765625q0 2.5 -0.578125 4.5625q-0.578125 2.0625 -1.796875 3.515625q-1.21875 1.4375 -3.125 2.234375q-1.890625 0.78125 -4.484375 0.78125l-10.3594055 0zm5.4219055 -3.890625l3.640625 0q3.65625 0 4.875 -1.703125q1.21875 -1.703125 1.21875 -5.5q0 -2.4375 -0.65625 -4.09375q-0.640625 -1.65625 -2.0625 -2.5q-1.40625 -0.84375 -3.8125 -0.84375l-3.203125 0l0 14.640625zm0 -18.765625l3.203125 0q2.3125 0 3.609375 -0.640625q1.296875 -0.65625 1.8125 -2.09375q0.53125 -1.4375 0.53125 -3.75q0 -2.6875 -0.8125 -3.875q-0.8125 -1.203125 -2.546875 -1.515625q-1.71875 -0.3125 -4.5 -0.3125l-1.296875 0l0 12.1875zm40.550293 31.96875q-2.734375 -0.046875 -4.484375 -1.421875q-1.75 -1.359375 -2.765625 -3.765625q-1.0 -2.390625 -1.453125 -5.46875q-0.453125 -3.078125 -0.5625 -6.578125q-0.09375 -3.5 -0.09375 -7.0q0 -3.5625 0.09375 -7.03125q0.109375 -3.484375 0.5625 -6.578125q0.453125 -3.09375 1.453125 -5.5q1.015625 -2.40625 2.765625 -3.796875q1.75 -1.390625 4.484375 -1.390625l0 3.453125q-1.671875 0.046875 -2.59375 1.90625q-0.90625 1.84375 -1.296875 4.875q-0.375 3.015625 -0.453125 6.6875q-0.0625 3.671875 -0.0625 7.375q0 3.734375 0.0625 7.40625q0.078125 3.671875 0.453125 6.703125q0.390625 3.015625 1.296875 4.84375q0.921875 1.828125 2.59375 1.875l0 3.40625zm4.475891 -9.3125l0 -38.875l15.0625 0l0 4.03125l-9.640625 0l0 12.859375l7.8125 0l0 3.84375l-7.8125 0l0 14.25l9.734375 0l0 3.890625l-15.15625 0zm19.536072 0l0 -38.875l3.6875 0l11.046875 25.8125l0 -25.8125l4.5 0l0 38.875l-3.453125 0l-11.1875 -26.546875l0 26.546875l-4.59375 0zm34.593994 0.484375q-3.640625 0 -5.828125 -1.5625q-2.1875 -1.5625 -3.171875 -4.53125q-0.984375 -2.984375 -0.984375 -7.15625l0 -13.015625q0 -4.265625 0.890625 -7.265625q0.890625 -3.0 3.171875 -4.578125q2.28125 -1.59375 6.359375 -1.59375q3.65625 0 5.875 1.234375q2.234375 1.21875 3.234375 3.734375q1.015625 2.515625 1.015625 6.359375l0 1.4375l-5.078125 0l0 -1.1875q0 -2.546875 -0.34375 -4.15625q-0.328125 -1.609375 -1.359375 -2.390625q-1.03125 -0.796875 -3.25 -0.796875q-2.390625 0 -3.484375 1.109375q-1.078125 1.09375 -1.34375 3.0q-0.25 1.890625 -0.25 4.28125l0 14.40625q0 2.78125 0.40625 4.65625q0.40625 1.875 1.546875 2.78125q1.15625 0.90625 3.265625 0.90625q2.125 0 3.265625 -1.0q1.15625 -1.015625 1.578125 -2.984375q0.4375 -1.96875 0.4375 -4.890625l0 -2.6875l-4.9375 0l0 -3.84375l9.84375 0l0 19.25l-3.40625 0l-0.53125 -4.46875q-0.765625 2.171875 -2.40625 3.5625q-1.625 1.390625 -4.515625 1.390625zm15.758179 -0.484375l0 -5.71875l5.125 0l0 5.71875l-5.125 0zm29.844177 0.4375q-3.359375 0 -5.59375 -1.4375q-2.21875 -1.453125 -3.375 -3.984375q-1.15625 -2.546875 -1.34375 -5.90625l4.796875 -1.296875q0.140625 2.0625 0.640625 3.984375q0.515625 1.921875 1.65625 3.140625q1.15625 1.21875 3.21875 1.21875q2.109375 0 3.1875 -1.171875q1.09375 -1.171875 1.09375 -3.390625q0 -2.640625 -1.203125 -4.234375q-1.203125 -1.609375 -3.03125 -3.25l-6.515625 -5.75q-1.921875 -1.6875 -2.84375 -3.671875q-0.90625 -2.0 -0.90625 -4.921875q0 -4.28125 2.4375 -6.625q2.453125 -2.359375 6.6875 -2.359375q2.296875 0 4.046875 0.609375q1.75 0.59375 2.921875 1.84375q1.1875 1.25 1.875 3.140625q0.703125 1.890625 0.9375 4.4375l-4.609375 1.25q-0.140625 -1.921875 -0.578125 -3.53125q-0.421875 -1.609375 -1.5 -2.59375q-1.078125 -0.984375 -3.09375 -0.984375q-2.015625 0 -3.15625 1.09375q-1.125 1.078125 -1.125 3.1875q0 1.78125 0.59375 2.9375q0.609375 1.140625 1.953125 2.34375l6.578125 5.75q2.203125 1.921875 3.875 4.59375q1.6875 2.65625 1.6875 6.3125q0 2.875 -1.203125 4.96875q-1.1875 2.078125 -3.28125 3.1875q-2.09375 1.109375 -4.828125 1.109375zm23.469666 0q-3.921875 0 -6.28125 -1.53125q-2.359375 -1.546875 -3.375 -4.40625q-1.0 -2.859375 -1.0 -6.6875l0 -14.734375q0 -3.84375 1.03125 -6.59375q1.046875 -2.765625 3.375 -4.234375q2.328125 -1.46875 6.25 -1.46875q3.9375 0 6.234375 1.5q2.3125 1.484375 3.34375 4.21875q1.03125 2.734375 1.03125 6.578125l0 14.78125q0 3.78125 -1.03125 6.625q-1.03125 2.828125 -3.34375 4.390625q-2.296875 1.5625 -6.234375 1.5625zm0 -4.28125q2.171875 0 3.265625 -0.875q1.109375 -0.890625 1.484375 -2.5q0.390625 -1.609375 0.390625 -3.765625l0 -17.046875q0 -2.15625 -0.390625 -3.71875q-0.375 -1.5625 -1.484375 -2.390625q-1.09375 -0.84375 -3.265625 -0.84375q-2.15625 0 -3.28125 0.84375q-1.125 0.828125 -1.515625 2.390625q-0.375 1.5625 -0.375 3.71875l0 17.046875q0 2.15625 0.375 3.765625q0.390625 1.609375 1.515625 2.5q1.125 0.875 3.28125 0.875zm15.950195 3.84375l0 -38.875l15.015625 0l0 3.890625l-9.59375 0l0 12.953125l7.4375 0l0 3.84375l-7.4375 0l0 18.1875l-5.421875 0zm23.033691 0l0 -34.84375l-6.578125 0l0 -4.03125l18.390625 0l0 4.03125l-6.390625 0l0 34.84375l-5.421875 0zm13.917725 9.3125l0 -3.453125q1.734375 -0.046875 2.640625 -1.90625q0.90625 -1.84375 1.296875 -4.859375q0.390625 -3.03125 0.453125 -6.71875q0.078125 -3.703125 0.078125 -7.40625q0 -3.734375 -0.078125 -7.40625q-0.0625 -3.671875 -0.453125 -6.671875q-0.390625 -3.0 -1.296875 -4.828125q-0.90625 -1.828125 -2.640625 -1.875l0 -3.40625q2.78125 0 4.53125 1.375q1.765625 1.359375 2.765625 3.765625q1.015625 2.390625 1.46875 5.5q0.453125 3.09375 0.546875 6.546875q0.09375 3.453125 0.09375 7.0q0 3.5625 -0.09375 7.046875q-0.09375 3.46875 -0.546875 6.59375q-0.453125 3.125 -1.46875 5.515625q-1.0 2.40625 -2.765625 3.765625q-1.75 1.375 -4.53125 1.421875z" fill-rule="nonzero"/></g></svg>